<svg width="244" height="100" viewBox="0 0 244 100" fill="none" xmlns="http://www.w3.org/2000/svg">
<path d="M50 95C74.8528 95 95 74.8528 95 50C95 25.1472 74.8528 5 50 5C25.1472 5 5 25.1472 5 50C5 74.8528 25.1472 95 50 95Z" fill="#F8F9FA"/>
<path d="M46.5 22C46.5 20.8954 45.6046 20 44.5 20C43.3954 20 42.5 20.8954 42.5 22V78C42.5 79.1046 43.3954 80 44.5 80C45.6046 80 46.5 79.1046 46.5 78V22Z" fill="#2ECC71"/>
<path d="M56.5 27C56.5 25.8954 55.6046 25 54.5 25C53.3954 25 52.5 25.8954 52.5 27V78C52.5 79.1046 53.3954 80 54.5 80C55.6046 80 56.5 79.1046 56.5 78V27Z" fill="#27AE60"/>
<path d="M46.5 35H42.5C41.9477 35 41.5 35.4477 41.5 36C41.5 36.5523 41.9477 37 42.5 37H46.5C47.0523 37 47.5 36.5523 47.5 36C47.5 35.4477 47.0523 35 46.5 35Z" fill="#27AE60"/>
<path d="M46.5 50H42.5C41.9477 50 41.5 50.4477 41.5 51C41.5 51.5523 41.9477 52 42.5 52H46.5C47.0523 52 47.5 51.5523 47.5 51C47.5 50.4477 47.0523 50 46.5 50Z" fill="#27AE60"/>
<path d="M46.5 65H42.5C41.9477 65 41.5 65.4477 41.5 66C41.5 66.5523 41.9477 67 42.5 67H46.5C47.0523 67 47.5 66.5523 47.5 66C47.5 65.4477 47.0523 65 46.5 65Z" fill="#27AE60"/>
<path d="M56.5 40H52.5C51.9477 40 51.5 40.4477 51.5 41C51.5 41.5523 51.9477 42 52.5 42H56.5C57.0523 42 57.5 41.5523 57.5 41C57.5 40.4477 57.0523 40 56.5 40Z" fill="#219A52"/>
<path d="M56.5 55H52.5C51.9477 55 51.5 55.4477 51.5 56C51.5 56.5523 51.9477 57 52.5 57H56.5C57.0523 57 57.5 56.5523 57.5 56C57.5 55.4477 57.0523 55 56.5 55Z" fill="#219A52"/>
<path d="M56.5 70H52.5C51.9477 70 51.5 70.4477 51.5 71C51.5 71.5523 51.9477 72 52.5 72H56.5C57.0523 72 57.5 71.5523 57.5 71C57.5 70.4477 57.0523 70 56.5 70Z" fill="#219A52"/>
<path d="M37.5 30C40.8333 26.6667 44.1667 26.6667 47.5 30" stroke="#2ECC71" stroke-width="4"/>
<path d="M52.5 35C55.8333 31.6667 59.1667 31.6667 62.5 35" stroke="#27AE60" stroke-width="4"/>
<path d="M35 45C38.3333 41.6667 41.6667 41.6667 45 45" stroke="#2ECC71" stroke-width="4"/>
<path d="M55 50C58.3333 46.6667 61.6667 46.6667 65 50" stroke="#27AE60" stroke-width="4"/>
<path d="M30 60L35 55L30 50" stroke="#333333" stroke-width="3"/>
<path d="M70 60L65 55L70 50" stroke="#333333" stroke-width="3"/>
<path d="M124.834 60.336C127.864 60.336 130.157 59.6533 131.714 58.288C133.293 56.9013 134.082 54.5973 134.082 51.376C134.082 48.1973 133.293 45.9573 131.714 44.656C130.157 43.3333 127.864 42.672 124.834 42.672H123.202V60.336H124.834ZM118.946 41.52C118.946 40.7307 119.202 40.1013 119.714 39.632C120.226 39.1627 120.898 38.928 121.73 38.928H124.834C129.101 38.928 132.429 39.984 134.818 42.096C137.229 44.208 138.434 47.3227 138.434 51.44C138.434 55.6213 137.24 58.7787 134.851 60.912C132.461 63.024 129.122 64.08 124.834 64.08H122.274C121.08 64.08 120.226 63.8453 119.714 63.376C119.202 62.928 118.946 62.1387 118.946 61.008V41.52ZM155.546 62.192C154.928 62.768 154.053 63.2373 152.922 63.6C151.792 63.984 150.565 64.176 149.242 64.176C147.514 64.176 146 63.8133 144.698 63.088C143.397 62.3627 142.384 61.3387 141.658 60.016C140.954 58.672 140.602 57.104 140.602 55.312C140.602 53.5627 140.933 52.016 141.594 50.672C142.256 49.3067 143.205 48.2507 144.442 47.504C145.701 46.7573 147.184 46.384 148.89 46.384C150.533 46.384 151.984 46.7573 153.242 47.504C154.522 48.2293 155.504 49.264 156.186 50.608C156.869 51.9307 157.178 53.456 157.114 55.184C157.093 55.8027 156.88 56.2613 156.474 56.56C156.069 56.8587 155.557 57.008 154.938 57.008H145.082C145.274 58.2453 145.744 59.152 146.49 59.728C147.237 60.304 148.186 60.592 149.338 60.592C150.149 60.592 150.853 60.496 151.45 60.304C152.048 60.112 152.613 59.824 153.146 59.44C153.616 59.0773 154.064 58.896 154.49 58.896C154.938 58.896 155.365 59.0987 155.77 59.504C156.112 59.888 156.282 60.2827 156.282 60.688C156.282 61.2427 156.037 61.744 155.546 62.192ZM152.666 53.68C152.538 52.528 152.133 51.632 151.45 50.992C150.789 50.352 149.946 50.032 148.922 50.032C147.856 50.032 147.002 50.3307 146.362 50.928C145.744 51.5253 145.317 52.4427 145.082 53.68H152.666ZM161.921 46.832C162.497 46.832 162.988 46.9813 163.393 47.28C163.799 47.5787 164.012 48.048 164.033 48.688C165.143 47.3653 166.711 46.704 168.737 46.704C171.169 46.704 173.004 47.5147 174.241 49.136C175.479 50.736 176.044 52.9227 175.938 55.696V62.48C175.938 63.1627 175.735 63.664 175.33 63.984C174.946 64.3253 174.433 64.496 173.793 64.496C173.175 64.496 172.663 64.3253 172.257 63.984C171.852 63.6427 171.649 63.1413 171.649 62.48V55.504C171.692 53.712 171.425 52.4107 170.849 51.6C170.273 50.768 169.356 50.352 168.097 50.352C166.881 50.352 165.911 50.7467 165.185 51.536C164.481 52.304 164.097 53.4347 164.033 54.928V62.48C164.033 63.1413 163.831 63.6427 163.425 63.984C163.041 64.3253 162.54 64.496 161.921 64.496C161.303 64.496 160.78 64.3253 160.353 63.984C159.948 63.6427 159.745 63.1413 159.745 62.48V48.848C159.745 48.1653 159.948 47.664 160.353 47.344C160.759 47.0027 161.281 46.832 161.921 46.832ZM180.221 48.752C180.925 48.0267 181.885 47.4507 183.101 47.024C184.317 46.5973 185.533 46.384 186.749 46.384C189.117 46.384 191.005 47.0027 192.413 48.24C193.821 49.4773 194.525 51.312 194.525 53.744V62.16C194.525 62.8427 194.323 63.344 193.917 63.664C193.512 64.0053 193 64.176 192.381 64.176C191.784 64.176 191.283 64.0267 190.877 63.728C190.493 63.4293 190.28 62.9707 190.237 62.352C189.192 63.568 187.709 64.176 185.789 64.176C183.699 64.176 181.992 63.696 180.669 62.736C179.347 61.7973 178.685 60.432 178.685 58.64C178.685 56.9333 179.379 55.6213 180.765 54.704C182.152 53.7653 184.04 53.296 186.429 53.296C187.517 53.296 188.787 53.3387 190.237 53.424V53.232C190.237 52.1227 189.907 51.312 189.245 50.8C188.584 50.288 187.752 50.032 186.749 50.032C185.448 50.032 184.157 50.5547 182.877 51.6C182.472 51.9627 182.003 52.144 181.469 52.144C181.192 52.144 180.915 52.0907 180.637 51.984C180.381 51.8773 180.157 51.7173 179.965 51.504C179.624 51.1413 179.453 50.736 179.453 50.288C179.453 49.776 179.709 49.264 180.221 48.752ZM182.973 58.672C182.973 59.952 183.912 60.592 185.789 60.592C187.069 60.592 188.093 60.272 188.861 59.632C189.629 58.992 190.077 58.0213 190.205 56.72C188.797 56.6773 187.539 56.656 186.429 56.656C185.299 56.656 184.435 56.8267 183.837 57.168C183.261 57.5093 182.973 58.0107 182.973 58.672ZM199.504 46.512C200.08 46.512 200.571 46.672 200.976 46.992C201.381 47.2907 201.595 47.76 201.616 48.4C202.597 47.056 203.952 46.384 205.68 46.384C207.856 46.384 209.467 47.2053 210.512 48.848C211.088 48.0587 211.792 47.4507 212.624 47.024C213.477 46.5973 214.437 46.384 215.504 46.384C217.552 46.384 219.141 47.0987 220.272 48.528C221.424 49.9573 221.957 51.9413 221.872 54.48V62.16C221.872 62.8427 221.669 63.344 221.264 63.664C220.88 64.0053 220.368 64.176 219.728 64.176C219.109 64.176 218.597 64.0053 218.192 63.664C217.787 63.3227 217.584 62.8213 217.584 62.16V54.032C217.584 52.5813 217.349 51.5573 216.88 50.96C216.411 50.3413 215.728 50.032 214.832 50.032C214 50.032 213.296 50.352 212.72 50.992C212.144 51.6107 211.813 52.5707 211.728 53.872V62.16C211.728 62.8213 211.525 63.3227 211.12 63.664C210.736 64.0053 210.235 64.176 209.616 64.176C208.976 64.176 208.453 64.0053 208.048 63.664C207.664 63.344 207.472 62.8427 207.472 62.16V54.352C207.472 52.752 207.248 51.632 206.8 50.992C206.373 50.352 205.712 50.032 204.816 50.032C203.941 50.032 203.205 50.3947 202.608 51.12C202.011 51.824 201.68 52.8693 201.616 54.256V62.16C201.616 62.8213 201.413 63.3227 201.008 63.664C200.624 64.0053 200.123 64.176 199.504 64.176C198.885 64.176 198.363 64.0053 197.936 63.664C197.531 63.3227 197.328 62.8213 197.328 62.16V48.528C197.328 47.8453 197.531 47.344 197.936 47.024C198.341 46.6827 198.864 46.512 199.504 46.512ZM238.946 64.176C238.37 64.176 237.88 64.016 237.474 63.696C237.069 63.3973 236.856 62.928 236.834 62.288C235.682 63.568 234.114 64.208 232.13 64.208C229.677 64.208 227.832 63.4507 226.594 61.936C225.378 60.4 224.824 58.16 224.93 55.216V48.56C224.93 47.8773 225.133 47.376 225.538 47.056C225.944 46.7147 226.456 46.544 227.074 46.544C227.693 46.544 228.205 46.7147 228.61 47.056C229.016 47.376 229.218 47.8773 229.218 48.56V55.376C229.197 57.2533 229.453 58.5867 229.986 59.376C230.541 60.1653 231.469 60.56 232.77 60.56C233.986 60.56 234.946 60.176 235.65 59.408C236.376 58.6187 236.77 57.4773 236.834 55.984V48.528C236.834 47.8453 237.037 47.344 237.442 47.024C237.848 46.6827 238.349 46.512 238.946 46.512C239.586 46.512 240.109 46.6827 240.514 47.024C240.92 47.344 241.122 47.8453 241.122 48.528V62.16C241.122 62.8427 240.92 63.344 240.514 63.664C240.109 64.0053 239.586 64.176 238.946 64.176Z" fill="#27AE60"/>
</svg>
