<svg width="100" height="100" viewBox="0 0 100 100" fill="none" xmlns="http://www.w3.org/2000/svg">
<path d="M50 95C74.8528 95 95 74.8528 95 50C95 25.1472 74.8528 5 50 5C25.1472 5 5 25.1472 5 50C5 74.8528 25.1472 95 50 95Z" fill="#F8F9FA"/>
<path d="M46.5 22C46.5 20.8954 45.6046 20 44.5 20C43.3954 20 42.5 20.8954 42.5 22V78C42.5 79.1046 43.3954 80 44.5 80C45.6046 80 46.5 79.1046 46.5 78V22Z" fill="#2ECC71"/>
<path d="M56.5 27C56.5 25.8954 55.6046 25 54.5 25C53.3954 25 52.5 25.8954 52.5 27V78C52.5 79.1046 53.3954 80 54.5 80C55.6046 80 56.5 79.1046 56.5 78V27Z" fill="#27AE60"/>
<path d="M46.5 35H42.5C41.9477 35 41.5 35.4477 41.5 36C41.5 36.5523 41.9477 37 42.5 37H46.5C47.0523 37 47.5 36.5523 47.5 36C47.5 35.4477 47.0523 35 46.5 35Z" fill="#27AE60"/>
<path d="M46.5 50H42.5C41.9477 50 41.5 50.4477 41.5 51C41.5 51.5523 41.9477 52 42.5 52H46.5C47.0523 52 47.5 51.5523 47.5 51C47.5 50.4477 47.0523 50 46.5 50Z" fill="#27AE60"/>
<path d="M46.5 65H42.5C41.9477 65 41.5 65.4477 41.5 66C41.5 66.5523 41.9477 67 42.5 67H46.5C47.0523 67 47.5 66.5523 47.5 66C47.5 65.4477 47.0523 65 46.5 65Z" fill="#27AE60"/>
<path d="M56.5 40H52.5C51.9477 40 51.5 40.4477 51.5 41C51.5 41.5523 51.9477 42 52.5 42H56.5C57.0523 42 57.5 41.5523 57.5 41C57.5 40.4477 57.0523 40 56.5 40Z" fill="#219A52"/>
<path d="M56.5 55H52.5C51.9477 55 51.5 55.4477 51.5 56C51.5 56.5523 51.9477 57 52.5 57H56.5C57.0523 57 57.5 56.5523 57.5 56C57.5 55.4477 57.0523 55 56.5 55Z" fill="#219A52"/>
<path d="M56.5 70H52.5C51.9477 70 51.5 70.4477 51.5 71C51.5 71.5523 51.9477 72 52.5 72H56.5C57.0523 72 57.5 71.5523 57.5 71C57.5 70.4477 57.0523 70 56.5 70Z" fill="#219A52"/>
<path d="M37.5 30C40.8333 26.6667 44.1667 26.6667 47.5 30" stroke="#2ECC71" stroke-width="4"/>
<path d="M52.5 35C55.8333 31.6667 59.1667 31.6667 62.5 35" stroke="#27AE60" stroke-width="4"/>
<path d="M35 45C38.3333 41.6667 41.6667 41.6667 45 45" stroke="#2ECC71" stroke-width="4"/>
<path d="M55 50C58.3333 46.6667 61.6667 46.6667 65 50" stroke="#27AE60" stroke-width="4"/>
<path d="M30 60L35 55L30 50" stroke="#333333" stroke-width="3"/>
<path d="M70 60L65 55L70 50" stroke="#333333" stroke-width="3"/>
</svg>
