<?xml version="1.0" encoding="UTF-8"?>
<svg version="1.1" xmlns="http://www.w3.org/2000/svg" width="867" height="807">
<path d="M0 0 C286.11 0 572.22 0 867 0 C867 266.31 867 532.62 867 807 C580.89 807 294.78 807 0 807 C0 540.69 0 274.38 0 0 Z " fill="#EA5220" transform="translate(0,0)"/>
<path d="M0 0 C14.39979008 10.17213189 25.17745249 24.31655234 29.25268555 41.70947266 C29.91219535 45.5441572 29.91683138 49.34472769 29.87109375 53.2265625 C29.86360107 54.06654785 29.8561084 54.9065332 29.84838867 55.77197266 C29.74598315 61.67030166 29.39617308 67.19175459 27.62109375 72.8515625 C27.30269531 73.87378906 26.98429687 74.89601563 26.65625 75.94921875 C20.80440398 92.79544215 8.62629399 106.0864589 -7.37890625 113.8515625 C-23.19893285 120.61684115 -42.05052267 121.66954968 -58.1875 115.328125 C-67.23548006 111.14191146 -74.25623105 105.8253316 -81.37890625 98.8515625 C-81.93320313 98.33335937 -82.4875 97.81515625 -83.05859375 97.28125 C-94.48981759 85.47928377 -98.66091236 68.04501741 -98.69604492 52.1965332 C-98.35215664 35.5265968 -91.13621343 20.38469543 -79.47265625 8.6484375 C-57.69174253 -11.86286338 -25.66016891 -15.23206374 0 0 Z " fill="#FEFEFE" transform="translate(299.37890625,208.1484375)"/>
<path d="M0 0 C13.45586567 10.78510599 23.54135151 24.23156847 26.625 41.5 C28.60493355 60.00337898 25.79922033 77.49783462 14.15234375 92.44140625 C3.45961333 105.15236528 -10.16628354 114.85143432 -27 117 C-45.76351847 118.28282216 -61.55893408 116.11071521 -76.5859375 103.8984375 C-79.13657919 101.66949837 -81.58066825 99.37029124 -84 97 C-84.639375 96.39671875 -85.27875 95.7934375 -85.9375 95.171875 C-91.79050164 89.16209654 -94.83858292 81.63804901 -98 74 C-98.36480469 73.15566406 -98.72960937 72.31132812 -99.10546875 71.44140625 C-103.03229273 60.8039535 -102.10673402 46.74656422 -99 36 C-98.80535156 35.27039063 -98.61070312 34.54078125 -98.41015625 33.7890625 C-93.78549287 18.19108544 -83.0571134 5.10402364 -69 -3 C-65.40947837 -4.90762794 -61.79075333 -6.53209126 -58 -8 C-57.18402344 -8.32097656 -56.36804688 -8.64195312 -55.52734375 -8.97265625 C-37.49438662 -14.96506086 -15.39010759 -10.87170044 0 0 Z " fill="#FEFEFE" transform="translate(463,210)"/>
<path d="M0 0 C13.1461219 10.31464949 23.62451294 24.72045586 25.74609375 41.6484375 C27.15354959 60.22685465 24.92674264 76.47163894 12.8984375 91.65234375 C10.67584905 94.19189928 8.38400489 96.61190591 6 99 C5.36191406 99.6496875 4.72382813 100.299375 4.06640625 100.96875 C-8.00257901 112.41044912 -24.68432321 116.66753827 -40.93603516 116.47045898 C-58.69814103 115.79615349 -72.52394466 108.4087385 -85 96 C-85.55171875 95.48308594 -86.1034375 94.96617187 -86.671875 94.43359375 C-98.36666229 82.39299286 -102.35954471 64.71662466 -102.13671875 48.5703125 C-101.5518624 33.29720658 -95.50360063 19.22422187 -85 8 C-84.30777344 7.25492187 -83.61554688 6.50984375 -82.90234375 5.7421875 C-60.84228681 -15.98641616 -24.84583761 -18.74335118 0 0 Z " fill="#FEFEFE" transform="translate(464,372)"/>
<path d="M0 0 C7.37710131 5.68629123 12.95308353 12.19488499 18 20 C18.40992188 20.62003906 18.81984375 21.24007812 19.2421875 21.87890625 C25.45694958 32.64634288 26.90328719 46.87846869 26 59 C25.91105469 60.4540625 25.91105469 60.4540625 25.8203125 61.9375 C23.87917806 79.36036525 13.57557478 93.0974277 0.4375 103.9375 C-4.10613593 107.25660994 -8.84544113 109.76558734 -14 112 C-15.21623047 112.59167969 -15.21623047 112.59167969 -16.45703125 113.1953125 C-30.02701306 118.87761821 -48.2453727 117.95273504 -61.75390625 112.53125 C-63.36072266 111.77328125 -63.36072266 111.77328125 -65 111 C-66.04027344 110.5153125 -67.08054687 110.030625 -68.15234375 109.53125 C-84.08440857 101.16537812 -94.23242665 87.0935552 -100.0546875 70.359375 C-104.67958625 53.92378441 -102.68757375 35.34145722 -94.46240234 20.43164062 C-86.21554004 6.50426015 -74.04528703 -3.17395268 -59 -9 C-58.18402344 -9.32097656 -57.36804688 -9.64195312 -56.52734375 -9.97265625 C-37.58007537 -16.26888917 -15.92706942 -11.39946094 0 0 Z " fill="#FEFEFE" transform="translate(625,211)"/>
<path d="M0 0 C13.51306586 10.81727747 24.50647465 24.97286287 26.75 42.640625 C28.14481923 61.38350839 25.78981241 77.41058296 13.828125 92.79296875 C11.63330559 95.29430604 9.36914164 97.66387776 7 100 C6.04480469 100.97066406 6.04480469 100.97066406 5.0703125 101.9609375 C-8.03780717 114.41637071 -25.1171864 117.46873175 -42.48828125 117.2109375 C-56.79503897 116.72778246 -69.36528552 110.31784552 -80 101 C-80.67675781 100.42894531 -81.35351562 99.85789062 -82.05078125 99.26953125 C-91.81829558 90.37445509 -99.79873553 75.53306893 -100.91015625 62.27734375 C-101.69292346 42.43589657 -98.58113981 25.23387111 -85 10 C-84.49210937 9.4121875 -83.98421875 8.824375 -83.4609375 8.21875 C-76.2403911 0.41645341 -66.9851528 -4.62473708 -57 -8 C-56.20722656 -8.2990625 -55.41445313 -8.598125 -54.59765625 -8.90625 C-36.48028093 -14.93606983 -15.48368387 -10.79303846 0 0 Z " fill="#FEFEFE" transform="translate(463,532)"/>
</svg>
