<svg id="svg" version="1.1" xmlns="http://www.w3.org/2000/svg" xmlns:xlink="http://www.w3.org/1999/xlink" width="400" height="400" viewBox="0, 0, 400,400"><g id="svgg"><path id="path0" d="M159.600 105.599 C 158.390 106.025,155.960 106.487,154.200 106.626 C 152.076 106.794,150.647 107.126,149.952 107.613 C 149.343 108.039,147.497 108.540,145.555 108.806 C 143.714 109.058,142.116 109.403,142.004 109.572 C 141.576 110.218,140.114 110.710,137.800 110.986 C 136.480 111.143,134.860 111.600,134.200 112.000 C 133.540 112.400,131.920 112.858,130.600 113.017 C 129.280 113.175,127.728 113.637,127.152 114.043 C 126.575 114.449,125.045 114.899,123.752 115.043 C 122.458 115.187,120.483 115.732,119.361 116.253 C 118.240 116.774,116.888 117.200,116.355 117.200 C 115.823 117.200,114.715 117.561,113.892 118.002 C 113.070 118.443,111.100 118.987,109.516 119.212 C 107.931 119.437,106.519 119.808,106.377 120.037 C 106.236 120.266,105.418 120.694,104.560 120.989 L 103.000 121.525 102.891 128.362 L 102.781 135.200 120.729 135.200 C 141.005 135.200,139.144 134.884,140.785 138.600 C 141.383 139.953,141.793 142.023,142.055 145.000 C 142.282 147.585,142.754 150.154,143.201 151.228 C 143.655 152.321,144.063 154.574,144.216 156.828 C 144.357 158.903,144.799 161.590,145.199 162.800 C 145.599 164.010,146.125 167.003,146.369 169.451 C 146.613 171.899,147.089 174.455,147.426 175.132 C 147.766 175.813,148.199 178.322,148.397 180.760 C 148.621 183.523,148.985 185.511,149.375 186.106 C 149.777 186.719,150.139 188.800,150.400 192.000 C 150.667 195.270,151.020 197.277,151.442 197.920 C 151.852 198.546,152.264 200.770,152.594 204.147 C 152.878 207.036,153.383 210.030,153.718 210.801 C 154.054 211.571,154.449 213.731,154.597 215.601 C 154.746 217.470,155.207 220.021,155.622 221.269 C 156.038 222.517,156.542 225.598,156.743 228.114 C 156.989 231.183,157.327 233.022,157.772 233.701 C 158.217 234.380,158.559 236.243,158.814 239.365 C 159.047 242.228,159.422 244.367,159.789 244.927 C 160.156 245.487,160.550 247.733,160.813 250.764 C 161.055 253.552,161.480 256.061,161.792 256.545 C 162.095 257.015,162.544 259.290,162.791 261.600 C 163.037 263.910,163.585 266.970,164.009 268.400 C 164.432 269.830,164.949 272.890,165.158 275.200 C 165.366 277.510,165.820 279.958,166.167 280.640 C 166.535 281.362,166.954 283.783,167.171 286.440 C 167.388 289.108,167.802 291.498,168.169 292.200 C 168.513 292.860,168.796 293.693,168.798 294.051 C 168.803 295.563,169.545 295.643,179.657 295.220 C 185.016 294.996,190.030 294.639,190.800 294.427 C 192.097 294.069,201.515 293.200,204.089 293.200 C 204.902 293.200,205.343 292.923,205.669 292.208 C 205.918 291.662,206.454 291.110,206.861 290.981 C 207.267 290.852,207.600 290.491,207.600 290.178 C 207.600 289.866,208.590 288.444,209.800 287.017 C 211.010 285.591,212.002 284.284,212.004 284.112 C 212.007 283.940,212.831 282.908,213.837 281.817 C 214.842 280.727,215.921 279.339,216.234 278.734 C 216.547 278.128,217.208 277.201,217.702 276.674 C 218.196 276.146,218.960 275.231,219.400 274.639 C 219.840 274.047,220.695 273.025,221.300 272.368 C 221.905 271.710,222.400 271.022,222.400 270.837 C 222.400 270.497,225.943 265.927,227.791 263.884 C 228.346 263.270,228.800 262.581,228.800 262.352 C 228.800 262.124,229.700 260.902,230.800 259.637 C 231.900 258.373,232.800 257.131,232.800 256.878 C 232.800 256.625,233.250 256.124,233.800 255.763 C 234.350 255.403,234.800 254.869,234.800 254.577 C 234.800 254.285,235.790 252.879,237.000 251.452 C 238.210 250.026,239.200 248.676,239.200 248.452 C 239.200 248.228,239.534 247.810,239.943 247.523 C 240.351 247.235,240.803 246.627,240.947 246.171 C 241.091 245.714,241.522 244.992,241.905 244.566 C 243.198 243.124,245.600 239.871,245.600 239.561 C 245.600 239.392,245.939 239.146,246.352 239.015 C 246.766 238.884,247.206 238.268,247.331 237.646 C 247.455 237.025,247.920 236.085,248.364 235.558 C 250.193 233.388,251.123 232.137,251.752 231.000 C 252.117 230.340,253.042 228.990,253.806 228.000 C 254.571 227.010,255.375 225.790,255.592 225.290 C 255.810 224.789,256.244 224.281,256.557 224.161 C 256.871 224.041,257.336 223.437,257.593 222.818 C 257.849 222.200,258.495 221.314,259.029 220.849 C 259.563 220.385,260.000 219.744,260.000 219.425 C 260.000 219.106,260.324 218.610,260.720 218.323 C 261.116 218.035,261.673 217.228,261.957 216.529 C 262.241 215.830,262.817 214.947,263.237 214.567 C 263.656 214.187,264.000 213.647,264.000 213.367 C 264.000 213.087,264.420 212.528,264.933 212.124 C 265.446 211.721,265.990 210.893,266.143 210.285 C 266.295 209.677,266.755 208.845,267.164 208.436 C 267.573 208.027,268.122 207.043,268.384 206.249 C 268.646 205.456,269.092 204.670,269.376 204.503 C 269.660 204.336,270.191 203.615,270.556 202.900 C 270.922 202.185,271.360 201.600,271.530 201.600 C 271.700 201.600,272.058 200.996,272.325 200.257 C 272.592 199.519,273.168 198.591,273.605 198.195 C 274.042 197.800,274.400 197.248,274.400 196.969 C 274.400 196.690,274.824 195.953,275.342 195.331 C 275.860 194.709,276.499 193.541,276.761 192.735 C 277.024 191.930,277.474 191.180,277.762 191.070 C 278.051 190.959,278.405 190.277,278.549 189.554 C 278.694 188.830,279.147 187.870,279.557 187.419 C 279.966 186.969,280.518 185.924,280.783 185.097 C 281.047 184.270,281.610 183.409,282.032 183.183 C 282.454 182.957,282.800 182.443,282.800 182.042 C 282.800 181.640,283.250 180.649,283.800 179.838 C 284.350 179.028,284.800 178.141,284.800 177.867 C 284.800 177.593,285.174 176.656,285.631 175.785 C 286.088 174.913,286.720 173.364,287.034 172.342 C 287.349 171.319,287.857 170.387,288.163 170.269 C 288.470 170.152,288.843 169.328,288.993 168.440 C 289.143 167.551,289.622 166.372,290.056 165.820 C 290.490 165.267,290.989 163.911,291.164 162.805 C 291.338 161.699,291.763 160.480,292.108 160.097 C 292.452 159.714,292.943 158.230,293.200 156.800 C 293.456 155.370,293.988 153.660,294.383 153.000 C 294.777 152.340,295.219 150.564,295.366 149.053 C 295.516 147.504,296.006 145.585,296.489 144.653 C 297.687 142.342,297.859 124.192,296.696 122.906 C 296.316 122.486,295.754 121.309,295.448 120.292 C 295.141 119.274,294.510 117.958,294.045 117.367 C 293.580 116.776,293.200 116.116,293.200 115.900 C 293.200 115.541,289.069 111.405,287.305 110.000 C 286.258 109.165,281.435 106.800,280.780 106.800 C 280.484 106.800,278.702 106.328,276.821 105.751 C 272.610 104.460,265.486 104.565,261.600 105.975 C 260.390 106.415,258.825 106.780,258.121 106.787 C 257.418 106.794,255.996 107.250,254.962 107.800 C 253.927 108.350,252.682 108.800,252.194 108.800 C 251.707 108.800,250.844 109.165,250.277 109.611 C 249.711 110.056,248.606 110.689,247.823 111.016 C 247.041 111.343,246.400 111.759,246.400 111.941 C 246.400 112.123,245.968 112.468,245.441 112.709 C 244.914 112.949,244.059 113.531,243.541 114.002 C 241.846 115.544,239.131 117.600,238.789 117.600 C 238.605 117.600,238.343 117.951,238.206 118.380 C 238.070 118.808,237.612 119.269,237.188 119.404 C 236.583 119.596,235.200 122.698,235.200 123.862 C 235.200 123.927,235.785 124.278,236.500 124.644 C 237.215 125.009,237.944 125.554,238.120 125.854 C 238.296 126.154,238.673 126.400,238.958 126.400 C 239.243 126.400,239.818 126.778,240.237 127.241 C 240.656 127.703,241.486 128.334,242.083 128.643 C 243.088 129.162,244.110 129.989,246.242 132.004 C 246.705 132.442,247.294 132.800,247.551 132.800 C 247.807 132.800,248.222 133.250,248.473 133.800 C 248.723 134.350,249.173 134.800,249.473 134.800 C 249.772 134.800,250.215 135.235,250.457 135.766 C 250.699 136.297,251.249 136.824,251.678 136.936 C 252.108 137.049,252.555 137.508,252.673 137.957 C 252.790 138.406,253.227 138.882,253.643 139.014 C 254.059 139.146,254.400 139.408,254.400 139.596 C 254.400 139.785,254.830 140.449,255.355 141.073 C 255.880 141.697,256.501 142.902,256.735 143.751 C 256.970 144.600,257.485 145.652,257.881 146.090 C 258.977 147.301,258.977 167.661,257.881 169.333 C 257.466 169.966,257.008 171.776,256.799 173.606 C 256.568 175.634,256.154 177.183,255.654 177.891 C 255.224 178.501,254.756 179.842,254.616 180.872 C 254.475 181.901,254.032 183.161,253.631 183.672 C 253.230 184.182,252.776 185.347,252.623 186.261 C 252.469 187.175,251.906 188.515,251.371 189.239 C 250.837 189.963,250.399 190.835,250.398 191.178 C 250.397 191.520,249.952 192.520,249.410 193.400 C 248.868 194.280,248.419 195.381,248.412 195.846 C 248.406 196.311,248.057 197.128,247.639 197.660 C 247.220 198.193,246.681 199.358,246.440 200.251 C 246.200 201.143,245.663 202.181,245.248 202.557 C 244.832 202.933,244.378 203.808,244.240 204.501 C 244.101 205.194,243.653 206.130,243.243 206.581 C 242.834 207.031,242.288 208.059,242.030 208.865 C 241.772 209.670,241.323 210.421,241.032 210.532 C 240.741 210.644,240.378 211.233,240.225 211.841 C 240.073 212.449,239.510 213.467,238.974 214.104 C 238.438 214.740,238.000 215.586,238.000 215.982 C 238.000 216.378,237.701 216.949,237.335 217.251 C 236.969 217.553,236.341 218.541,235.940 219.447 C 235.538 220.353,234.937 221.320,234.605 221.596 C 234.272 221.872,234.000 222.321,234.000 222.594 C 234.000 222.867,233.460 223.769,232.800 224.600 C 232.140 225.431,231.600 226.361,231.600 226.668 C 231.600 226.974,231.312 227.335,230.961 227.470 C 230.610 227.605,229.986 228.500,229.575 229.458 C 229.164 230.416,228.664 231.200,228.463 231.200 C 228.262 231.200,227.871 231.747,227.594 232.415 C 227.317 233.084,226.755 233.810,226.345 234.029 C 225.935 234.249,225.600 234.657,225.600 234.936 C 225.600 235.216,224.610 236.645,223.400 238.112 C 222.190 239.578,221.200 240.953,221.200 241.167 C 221.200 241.380,220.882 241.790,220.494 242.077 C 220.105 242.365,219.582 243.050,219.330 243.600 C 218.820 244.712,217.443 246.525,216.156 247.778 C 215.691 248.230,215.187 248.996,215.035 249.480 C 214.883 249.963,214.408 250.470,213.980 250.606 C 213.551 250.743,213.200 251.175,213.200 251.569 C 213.200 251.962,212.795 252.721,212.300 253.256 C 211.805 253.791,211.105 254.681,210.744 255.234 C 209.910 256.510,207.429 257.357,206.788 256.585 C 206.270 255.961,205.620 251.822,205.608 249.078 C 205.604 248.021,205.258 246.401,204.840 245.478 C 204.369 244.436,203.922 242.057,203.662 239.200 C 203.423 236.567,202.967 234.047,202.596 233.307 C 202.203 232.522,201.812 230.215,201.603 227.443 C 201.384 224.536,201.013 222.398,200.583 221.566 C 200.159 220.746,199.770 218.554,199.541 215.686 C 199.338 213.146,198.913 210.604,198.584 209.969 C 198.258 209.339,197.741 206.614,197.435 203.912 C 197.129 201.210,196.605 198.364,196.270 197.586 C 195.935 196.808,195.533 194.378,195.376 192.186 C 195.212 189.884,194.773 187.381,194.337 186.263 C 193.912 185.173,193.427 182.460,193.227 180.063 C 193.032 177.718,192.591 175.143,192.248 174.341 C 191.904 173.538,191.415 170.752,191.161 168.150 C 190.905 165.528,190.449 163.036,190.137 162.560 C 189.814 162.067,189.401 159.696,189.166 156.989 C 188.928 154.250,188.492 151.765,188.126 151.057 C 187.770 150.368,187.327 147.917,187.107 145.419 C 186.893 142.989,186.476 140.370,186.180 139.600 C 185.492 137.806,185.285 136.654,184.811 131.985 C 184.598 129.887,184.145 127.611,183.804 126.928 C 183.441 126.200,183.088 124.055,182.952 121.743 C 182.783 118.875,182.523 117.518,181.997 116.766 C 181.600 116.198,181.102 115.108,180.891 114.345 C 180.680 113.582,180.034 112.446,179.454 111.820 C 178.874 111.195,178.400 110.446,178.400 110.156 C 178.400 109.866,177.995 109.419,177.500 109.164 C 177.005 108.909,176.216 108.351,175.747 107.924 C 175.278 107.498,173.902 106.890,172.690 106.573 C 171.479 106.257,169.973 105.729,169.344 105.401 C 167.662 104.524,162.352 104.632,159.600 105.599 " stroke="none" fill="#fbfbfb" fill-rule="evenodd"></path><path id="path1" d="M18.323 7.900 C 17.992 8.285,17.591 8.870,17.431 9.200 C 17.271 9.530,17.428 9.440,17.779 9.000 C 18.130 8.560,18.718 7.975,19.085 7.700 C 19.452 7.425,19.566 7.200,19.338 7.200 C 19.110 7.200,18.653 7.515,18.323 7.900 M381.314 8.120 C 381.801 8.626,382.274 8.987,382.364 8.923 C 382.598 8.755,381.142 7.200,380.752 7.200 C 380.574 7.200,380.827 7.614,381.314 8.120 M391.400 18.249 C 392.060 18.891,392.671 19.372,392.757 19.318 C 393.028 19.148,391.904 17.976,391.033 17.520 C 390.467 17.223,390.584 17.457,391.400 18.249 M7.798 18.402 C 6.775 19.532,7.210 19.637,8.286 18.520 C 8.773 18.014,9.026 17.600,8.848 17.600 C 8.670 17.600,8.197 17.961,7.798 18.402 M158.354 103.986 C 156.899 104.172,155.189 104.586,154.554 104.908 C 153.919 105.230,151.966 105.702,150.214 105.957 C 148.462 106.212,146.653 106.666,146.195 106.966 C 145.737 107.267,144.171 107.698,142.716 107.924 C 141.260 108.151,139.649 108.611,139.135 108.946 C 138.621 109.282,136.940 109.756,135.400 110.000 C 133.860 110.244,132.183 110.716,131.674 111.048 C 131.164 111.381,129.657 111.828,128.325 112.043 C 126.993 112.258,125.250 112.761,124.452 113.162 C 123.653 113.562,122.010 114.015,120.800 114.169 C 119.590 114.322,118.010 114.794,117.289 115.217 C 116.568 115.640,114.918 116.157,113.622 116.365 C 112.327 116.574,110.757 117.005,110.134 117.324 C 109.510 117.642,108.023 118.109,106.830 118.362 C 101.785 119.430,101.600 119.787,101.600 128.459 C 101.600 134.593,101.801 136.209,102.687 137.200 C 102.786 137.310,110.991 137.490,120.921 137.600 L 138.976 137.800 139.474 140.800 C 139.748 142.450,140.161 144.218,140.391 144.730 C 140.621 145.241,141.007 147.491,141.247 149.730 C 141.488 151.968,141.940 154.520,142.252 155.400 C 142.565 156.280,143.067 159.268,143.369 162.041 C 143.671 164.813,144.187 167.603,144.517 168.241 C 144.846 168.878,145.235 170.840,145.382 172.600 C 145.695 176.339,146.352 180.031,146.806 180.600 C 146.981 180.820,147.318 182.933,147.555 185.295 C 147.791 187.657,148.237 190.194,148.546 190.932 C 148.855 191.671,149.224 193.428,149.366 194.837 C 149.742 198.555,150.447 202.486,150.893 203.348 C 151.106 203.760,151.445 206.010,151.646 208.348 C 151.848 210.687,152.352 213.590,152.767 214.800 C 153.181 216.010,153.649 218.620,153.806 220.600 C 153.963 222.580,154.419 225.190,154.819 226.400 C 155.219 227.610,155.734 230.409,155.963 232.620 C 156.192 234.831,156.650 237.408,156.981 238.346 C 157.312 239.285,157.781 242.065,158.022 244.526 C 158.264 246.987,158.714 249.393,159.023 249.874 C 159.334 250.359,159.777 252.828,160.019 255.429 C 160.259 258.004,160.777 260.940,161.171 261.955 C 161.564 262.970,162.000 265.330,162.139 267.200 C 162.278 269.070,162.669 271.590,163.009 272.800 C 163.348 274.010,163.880 277.019,164.191 279.486 C 164.502 281.953,164.974 284.379,165.241 284.876 C 165.507 285.374,165.962 287.937,166.250 290.571 C 167.040 297.776,168.583 298.799,175.957 297.010 C 177.321 296.679,181.962 296.365,187.800 296.210 C 201.532 295.843,205.048 295.198,207.281 292.639 C 209.703 289.862,213.199 285.377,213.200 285.046 C 213.200 284.851,213.605 284.276,214.100 283.767 C 214.595 283.258,215.406 282.338,215.903 281.721 C 219.936 276.713,220.727 275.684,221.148 274.897 C 221.412 274.404,221.994 273.596,222.441 273.100 C 224.200 271.152,227.600 266.677,227.600 266.310 C 227.600 266.096,228.095 265.429,228.700 264.828 C 229.305 264.227,230.118 263.300,230.507 262.768 C 230.895 262.235,231.840 261.018,232.607 260.062 C 233.373 259.106,234.000 258.092,234.000 257.808 C 234.000 257.524,234.450 256.997,235.000 256.637 C 235.550 256.276,236.000 255.776,236.000 255.524 C 236.000 255.273,236.271 254.782,236.601 254.434 C 238.075 252.881,240.000 250.282,240.000 249.846 C 240.000 249.583,240.733 248.565,241.629 247.584 C 243.724 245.290,245.433 242.941,246.202 241.300 C 246.537 240.585,246.971 240.000,247.166 240.000 C 247.497 240.000,248.161 239.076,250.232 235.731 C 250.690 234.992,251.334 234.165,251.663 233.894 C 251.992 233.622,253.508 231.534,255.031 229.254 C 256.554 226.974,258.181 224.541,258.647 223.847 C 259.113 223.153,259.788 222.342,260.147 222.044 C 260.506 221.746,260.800 221.283,260.800 221.015 C 260.800 220.561,261.339 219.763,264.100 216.135 C 264.705 215.340,265.200 214.355,265.200 213.945 C 265.200 213.535,265.378 213.200,265.595 213.200 C 265.973 213.200,267.532 211.082,268.796 208.851 C 269.325 207.917,270.660 205.832,272.669 202.800 C 274.519 200.008,275.146 198.912,275.416 198.000 C 275.579 197.450,276.057 196.550,276.478 196.000 C 277.971 194.048,279.108 192.090,279.582 190.654 C 279.846 189.854,280.203 189.200,280.374 189.200 C 280.546 189.200,281.555 187.485,282.616 185.388 C 283.678 183.292,284.779 181.384,285.063 181.148 C 285.347 180.912,285.691 180.119,285.829 179.386 C 285.967 178.652,286.418 177.746,286.832 177.371 C 287.246 176.997,287.698 176.040,287.837 175.245 C 287.976 174.450,288.494 173.080,288.988 172.200 C 289.482 171.320,290.010 170.087,290.161 169.460 C 290.312 168.833,290.771 167.843,291.180 167.260 C 291.590 166.677,292.041 165.520,292.183 164.688 C 292.325 163.857,292.774 162.597,293.182 161.888 C 293.590 161.180,294.050 159.790,294.204 158.800 C 294.358 157.810,294.814 156.458,295.216 155.796 C 295.618 155.133,296.070 153.603,296.220 152.396 C 296.371 151.188,296.843 149.390,297.270 148.400 C 297.932 146.867,299.218 136.354,299.252 132.200 C 299.276 129.390,297.946 121.403,297.267 120.277 C 296.844 119.575,296.281 118.325,296.017 117.500 C 295.754 116.675,295.401 116.000,295.233 116.000 C 295.066 116.000,294.741 115.589,294.512 115.086 C 293.906 113.757,291.222 110.848,289.600 109.762 C 288.830 109.247,287.300 108.192,286.200 107.419 C 285.100 106.645,283.749 106.009,283.197 106.006 C 282.645 106.003,281.295 105.506,280.197 104.903 L 278.200 103.806 269.600 103.807 C 261.898 103.807,260.854 103.887,259.600 104.570 C 258.830 104.989,257.039 105.578,255.620 105.877 C 254.201 106.176,252.761 106.656,252.420 106.943 C 252.079 107.230,250.945 107.780,249.900 108.165 C 248.855 108.551,248.000 109.014,248.000 109.194 C 248.000 109.374,247.505 109.722,246.900 109.966 C 245.486 110.537,241.981 113.049,239.766 115.078 C 239.239 115.561,238.561 116.101,238.259 116.278 C 237.957 116.455,236.695 117.802,235.455 119.270 C 232.044 123.310,232.283 124.222,237.541 127.200 C 238.124 127.531,238.961 128.124,239.400 128.518 C 240.386 129.403,243.072 131.464,244.980 132.800 C 246.178 133.639,249.223 136.522,252.809 140.214 C 253.244 140.662,253.600 141.233,253.600 141.483 C 253.600 141.734,254.032 142.452,254.561 143.080 C 255.089 143.708,255.734 145.011,255.993 145.975 C 256.253 146.939,256.715 148.109,257.020 148.575 C 258.278 150.495,258.094 163.499,256.772 166.035 C 256.590 166.385,256.262 168.095,256.043 169.835 C 255.825 171.576,255.283 173.818,254.841 174.817 C 254.398 175.816,253.908 177.436,253.752 178.417 C 253.596 179.398,253.048 180.992,252.534 181.960 C 252.020 182.927,251.600 184.076,251.600 184.512 C 251.600 184.949,251.262 185.867,250.849 186.553 C 250.435 187.239,249.869 188.520,249.590 189.400 C 249.312 190.280,248.750 191.429,248.342 191.954 C 247.934 192.479,247.600 193.110,247.600 193.357 C 247.600 193.604,247.150 194.652,246.600 195.685 C 246.050 196.718,245.600 197.906,245.600 198.326 C 245.600 198.745,245.180 199.707,244.668 200.462 C 244.155 201.218,243.523 202.446,243.263 203.192 C 243.003 203.938,242.536 204.830,242.225 205.174 C 241.914 205.518,240.937 207.214,240.054 208.942 C 239.171 210.670,238.191 212.380,237.878 212.742 C 237.564 213.104,237.179 213.939,237.022 214.597 C 236.865 215.255,236.478 216.065,236.163 216.397 C 235.215 217.394,232.931 220.956,232.629 221.909 C 232.473 222.399,232.206 222.800,232.034 222.800 C 231.862 222.800,231.383 223.565,230.970 224.500 C 230.556 225.435,229.899 226.435,229.509 226.723 C 229.119 227.010,228.800 227.414,228.800 227.619 C 228.800 227.950,227.302 230.107,225.287 232.676 C 224.909 233.157,224.150 234.200,223.600 234.992 C 223.050 235.785,222.105 237.080,221.500 237.871 C 220.895 238.663,220.400 239.517,220.400 239.771 C 220.400 240.025,219.662 241.035,218.761 242.016 C 217.194 243.721,215.696 245.740,214.400 247.894 C 214.070 248.443,213.350 249.382,212.800 249.982 C 211.794 251.078,210.797 252.351,209.839 253.761 C 208.493 255.741,207.188 252.545,206.465 245.503 C 206.223 243.140,205.770 240.710,205.459 240.103 C 205.149 239.497,204.701 237.004,204.464 234.564 C 204.227 232.124,203.768 229.334,203.443 228.364 C 203.118 227.394,202.658 224.835,202.422 222.677 C 202.185 220.519,201.733 218.134,201.417 217.378 C 201.100 216.621,200.641 213.797,200.395 211.101 C 200.149 208.406,199.676 205.660,199.343 205.000 C 199.011 204.340,198.567 202.000,198.357 199.800 C 198.147 197.600,197.635 194.540,197.218 193.000 C 196.800 191.460,196.336 188.850,196.186 187.200 C 196.036 185.550,195.588 183.210,195.191 182.000 C 194.794 180.790,194.280 177.690,194.050 175.111 C 193.809 172.406,193.364 169.904,192.999 169.199 C 192.651 168.524,192.205 166.133,192.006 163.868 C 191.808 161.609,191.367 158.942,191.028 157.942 C 190.688 156.941,190.209 154.250,189.962 151.961 C 189.716 149.673,189.255 147.171,188.937 146.403 C 188.620 145.635,188.179 143.025,187.958 140.603 C 187.737 138.181,187.214 135.210,186.796 134.000 C 186.378 132.790,185.921 130.360,185.782 128.600 C 185.643 126.840,185.261 124.410,184.934 123.200 C 184.606 121.990,184.094 119.587,183.795 117.860 C 183.496 116.133,183.005 114.423,182.703 114.060 C 182.401 113.697,181.924 112.860,181.641 112.200 C 181.074 110.876,180.644 110.354,178.000 107.776 C 177.010 106.811,175.667 105.904,175.016 105.760 C 174.364 105.617,173.356 105.148,172.776 104.719 C 171.547 103.811,163.101 103.382,158.354 103.986 M167.600 104.377 C 176.697 105.349,182.304 111.034,183.574 120.574 C 183.828 122.481,184.220 124.526,184.446 125.120 C 184.672 125.714,185.028 127.730,185.237 129.600 C 185.446 131.470,185.873 133.900,186.186 135.000 C 186.500 136.100,186.953 138.620,187.194 140.600 C 187.435 142.580,187.991 145.730,188.428 147.600 C 188.865 149.470,189.412 152.620,189.644 154.600 C 189.875 156.580,190.410 159.539,190.832 161.175 C 191.254 162.812,191.600 164.885,191.600 165.783 C 191.600 166.681,191.949 168.677,192.377 170.219 C 192.804 171.760,193.420 175.176,193.746 177.811 C 194.073 180.445,194.526 183.088,194.754 183.684 C 194.981 184.280,195.457 186.890,195.811 189.484 C 196.165 192.078,196.700 195.100,197.001 196.200 C 197.301 197.300,197.665 199.370,197.810 200.800 C 197.954 202.230,198.412 204.722,198.826 206.338 C 199.241 207.954,199.770 211.142,200.002 213.422 C 200.234 215.702,200.687 218.313,201.009 219.225 C 201.330 220.137,201.788 222.529,202.025 224.541 C 202.262 226.554,202.803 229.665,203.228 231.455 C 203.652 233.245,204.002 235.315,204.004 236.055 C 204.006 236.795,204.445 239.331,204.981 241.691 C 205.516 244.051,206.147 247.713,206.383 249.828 C 206.804 253.603,207.279 255.200,207.981 255.200 C 208.176 255.200,208.577 255.293,208.874 255.407 C 209.205 255.534,210.031 254.741,211.007 253.359 C 211.883 252.118,213.095 250.579,213.700 249.938 C 214.305 249.297,214.800 248.611,214.800 248.415 C 214.800 248.218,215.025 247.815,215.300 247.519 C 215.888 246.885,217.927 244.226,218.918 242.800 C 219.301 242.250,220.604 240.450,221.814 238.800 C 223.025 237.150,224.456 235.170,224.994 234.400 C 225.532 233.630,226.515 232.280,227.179 231.400 C 227.842 230.520,228.692 229.215,229.067 228.500 C 229.442 227.785,229.873 227.200,230.026 227.200 C 230.278 227.200,233.609 221.840,235.263 218.774 C 235.628 218.098,236.183 217.242,236.497 216.872 C 236.811 216.503,237.425 215.480,237.861 214.600 C 239.448 211.398,242.119 206.585,242.648 205.974 C 242.946 205.630,243.400 204.730,243.656 203.974 C 243.913 203.218,244.431 202.150,244.809 201.600 C 245.186 201.050,245.627 200.150,245.788 199.600 C 246.090 198.570,246.506 197.647,249.972 190.304 C 251.087 187.942,252.000 185.775,252.000 185.489 C 252.000 185.203,252.368 184.256,252.819 183.385 C 253.269 182.513,253.886 180.755,254.189 179.477 C 254.492 178.200,254.926 176.930,255.154 176.655 C 255.382 176.380,255.845 174.572,256.182 172.637 C 256.520 170.702,257.099 168.282,257.469 167.259 C 258.621 164.075,258.500 149.626,257.300 147.122 C 256.805 146.089,256.400 145.082,256.400 144.884 C 256.400 143.348,249.748 135.593,245.929 132.677 C 240.704 128.687,238.222 126.846,236.223 125.476 C 234.847 124.533,234.000 123.664,234.000 123.196 C 234.000 119.110,249.328 107.722,256.859 106.213 C 257.597 106.065,259.360 105.570,260.777 105.114 C 263.725 104.164,274.048 103.920,277.000 104.731 C 288.504 107.889,293.604 112.408,297.392 122.800 C 298.674 126.318,298.404 142.901,297.010 146.237 C 296.674 147.041,296.212 148.873,295.983 150.309 C 295.753 151.745,295.230 153.658,294.819 154.560 C 294.408 155.462,293.942 156.920,293.782 157.800 C 293.622 158.680,293.178 160.030,292.795 160.800 C 292.411 161.570,291.968 162.830,291.810 163.600 C 291.652 164.370,291.204 165.555,290.815 166.233 C 290.425 166.910,289.880 168.170,289.603 169.033 C 289.326 169.895,288.869 170.870,288.588 171.200 C 288.308 171.530,287.804 172.700,287.469 173.800 C 287.134 174.900,286.152 177.164,285.286 178.831 C 283.485 182.298,278.927 190.704,278.362 191.600 C 278.154 191.930,277.697 192.828,277.346 193.597 C 276.995 194.365,276.279 195.504,275.754 196.127 C 275.229 196.751,274.800 197.462,274.800 197.707 C 274.800 197.952,273.455 200.164,271.810 202.623 C 270.166 205.081,268.633 207.522,268.402 208.046 C 267.929 209.125,266.587 211.222,264.100 214.767 C 263.165 216.100,262.400 217.342,262.400 217.526 C 262.400 217.710,261.950 218.283,261.400 218.800 C 260.850 219.317,260.400 219.888,260.400 220.069 C 260.400 220.400,257.648 224.426,257.166 224.800 C 256.926 224.986,253.248 230.286,249.318 236.108 C 248.393 237.479,247.260 239.050,246.800 239.600 C 245.896 240.682,244.387 242.722,242.800 245.008 C 242.250 245.800,241.260 247.144,240.600 247.994 C 238.379 250.856,234.208 256.500,233.237 257.956 C 232.707 258.750,231.177 260.740,229.837 262.377 C 228.497 264.015,227.130 265.757,226.800 266.248 C 226.039 267.381,222.658 271.859,221.489 273.282 C 221.000 273.877,219.700 275.545,218.600 276.988 C 217.500 278.432,215.700 280.773,214.600 282.191 C 213.500 283.609,211.700 285.963,210.600 287.422 C 205.999 293.526,205.425 293.972,201.600 294.423 C 196.189 295.061,189.663 295.541,180.200 295.999 C 175.360 296.233,171.092 296.519,170.715 296.635 C 168.624 297.275,167.438 294.925,166.654 288.589 C 166.327 285.955,165.857 283.267,165.608 282.616 C 165.360 281.965,164.886 279.355,164.555 276.816 C 164.225 274.277,163.707 271.300,163.404 270.200 C 163.101 269.100,162.735 267.030,162.590 265.600 C 162.446 264.170,161.986 261.671,161.569 260.046 C 161.152 258.421,160.706 255.901,160.578 254.446 C 160.449 252.991,159.922 249.910,159.407 247.600 C 158.892 245.290,158.356 242.230,158.216 240.800 C 158.076 239.370,157.626 236.940,157.216 235.400 C 156.807 233.860,156.352 231.430,156.205 230.001 C 156.058 228.571,155.605 225.961,155.199 224.201 C 154.793 222.440,154.345 219.830,154.204 218.400 C 154.062 216.970,153.670 214.810,153.332 213.600 C 152.994 212.390,152.382 208.970,151.972 206.000 C 151.563 203.030,150.965 199.520,150.643 198.200 C 150.322 196.880,149.887 194.540,149.676 193.000 C 149.465 191.460,149.008 188.760,148.661 187.000 C 147.774 182.517,146.776 177.030,146.330 174.200 C 146.123 172.880,145.688 170.540,145.364 169.000 C 145.040 167.460,144.499 164.220,144.161 161.800 C 143.823 159.380,143.284 156.320,142.963 155.000 C 142.642 153.680,142.102 150.620,141.763 148.200 C 141.120 143.605,139.962 138.624,139.211 137.221 C 138.778 136.412,138.513 136.400,120.850 136.400 L 102.928 136.400 102.464 135.381 C 102.175 134.745,102.000 131.987,102.000 128.043 C 102.000 119.742,101.004 120.613,114.800 116.838 C 116.230 116.446,117.940 115.849,118.600 115.510 C 119.260 115.171,120.790 114.761,122.000 114.599 C 123.210 114.437,124.830 113.990,125.600 113.605 C 126.370 113.220,128.145 112.707,129.544 112.465 C 130.944 112.222,132.341 111.815,132.649 111.559 C 132.957 111.304,134.692 110.777,136.504 110.389 C 138.317 110.002,140.610 109.407,141.600 109.068 C 144.652 108.023,149.656 106.718,152.767 106.155 C 154.398 105.860,156.378 105.402,157.167 105.139 C 157.955 104.875,159.770 104.537,161.200 104.386 C 162.630 104.236,163.890 104.091,164.000 104.064 C 164.110 104.037,165.730 104.178,167.600 104.377 M7.200 380.662 C 7.200 381.112,8.241 382.105,9.200 382.569 C 9.530 382.729,9.440 382.572,9.000 382.221 C 8.560 381.870,7.975 381.282,7.700 380.915 C 7.425 380.548,7.200 380.434,7.200 380.662 M391.714 381.480 C 391.227 381.986,390.974 382.400,391.152 382.400 C 391.542 382.400,392.998 380.845,392.764 380.677 C 392.674 380.613,392.201 380.974,391.714 381.480 M381.546 391.616 C 380.966 392.267,380.624 392.800,380.784 392.800 C 381.093 392.800,382.085 391.740,382.563 390.900 C 383.015 390.105,382.681 390.340,381.546 391.616 M17.600 391.152 C 17.600 391.542,19.155 392.998,19.323 392.764 C 19.387 392.674,19.026 392.201,18.520 391.714 C 18.014 391.227,17.600 390.974,17.600 391.152 " stroke="none" fill="#7adfc1" fill-rule="evenodd"></path><path id="path2" d="M161.200 104.386 C 159.770 104.537,157.955 104.875,157.167 105.139 C 156.378 105.402,154.398 105.860,152.767 106.155 C 149.656 106.718,144.652 108.023,141.600 109.068 C 140.610 109.407,138.317 110.002,136.504 110.389 C 134.692 110.777,132.957 111.304,132.649 111.559 C 132.341 111.815,130.944 112.222,129.544 112.465 C 128.145 112.707,126.370 113.220,125.600 113.605 C 124.830 113.990,123.210 114.437,122.000 114.599 C 120.790 114.761,119.260 115.171,118.600 115.510 C 117.940 115.849,116.230 116.446,114.800 116.838 C 101.004 120.613,102.000 119.742,102.000 128.043 C 102.000 131.987,102.175 134.745,102.464 135.381 L 102.928 136.400 120.850 136.400 C 138.513 136.400,138.778 136.412,139.211 137.221 C 139.962 138.624,141.120 143.605,141.763 148.200 C 142.102 150.620,142.642 153.680,142.963 155.000 C 143.284 156.320,143.823 159.380,144.161 161.800 C 144.499 164.220,145.040 167.460,145.364 169.000 C 145.688 170.540,146.123 172.880,146.330 174.200 C 146.776 177.030,147.774 182.517,148.661 187.000 C 149.008 188.760,149.465 191.460,149.676 193.000 C 149.887 194.540,150.322 196.880,150.643 198.200 C 150.965 199.520,151.563 203.030,151.972 206.000 C 152.382 208.970,152.994 212.390,153.332 213.600 C 153.670 214.810,154.062 216.970,154.204 218.400 C 154.345 219.830,154.793 222.440,155.199 224.201 C 155.605 225.961,156.058 228.571,156.205 230.001 C 156.352 231.430,156.807 233.860,157.216 235.400 C 157.626 236.940,158.076 239.370,158.216 240.800 C 158.356 242.230,158.892 245.290,159.407 247.600 C 159.922 249.910,160.449 252.991,160.578 254.446 C 160.706 255.901,161.152 258.421,161.569 260.046 C 161.986 261.671,162.446 264.170,162.590 265.600 C 162.735 267.030,163.101 269.100,163.404 270.200 C 163.707 271.300,164.225 274.277,164.555 276.816 C 164.886 279.355,165.360 281.965,165.608 282.616 C 165.857 283.267,166.327 285.955,166.654 288.589 C 167.438 294.925,168.624 297.275,170.715 296.635 C 171.092 296.519,175.360 296.233,180.200 295.999 C 189.663 295.541,196.189 295.061,201.600 294.423 C 205.425 293.972,205.999 293.526,210.600 287.422 C 211.700 285.963,213.500 283.609,214.600 282.191 C 215.700 280.773,217.500 278.432,218.600 276.988 C 219.700 275.545,221.000 273.877,221.489 273.282 C 222.658 271.859,226.039 267.381,226.800 266.248 C 227.130 265.757,228.497 264.015,229.837 262.377 C 231.177 260.740,232.707 258.750,233.237 257.956 C 234.208 256.500,238.379 250.856,240.600 247.994 C 241.260 247.144,242.250 245.800,242.800 245.008 C 244.387 242.722,245.896 240.682,246.800 239.600 C 247.260 239.050,248.393 237.479,249.318 236.108 C 253.248 230.286,256.926 224.986,257.166 224.800 C 257.648 224.426,260.400 220.400,260.400 220.069 C 260.400 219.888,260.850 219.317,261.400 218.800 C 261.950 218.283,262.400 217.710,262.400 217.526 C 262.400 217.342,263.165 216.100,264.100 214.767 C 266.587 211.222,267.929 209.125,268.402 208.046 C 268.633 207.522,270.166 205.081,271.810 202.623 C 273.455 200.164,274.800 197.952,274.800 197.707 C 274.800 197.462,275.229 196.751,275.754 196.127 C 276.279 195.504,276.995 194.365,277.346 193.597 C 277.697 192.828,278.154 191.930,278.362 191.600 C 278.927 190.704,283.485 182.298,285.286 178.831 C 286.152 177.164,287.134 174.900,287.469 173.800 C 287.804 172.700,288.308 171.530,288.588 171.200 C 288.869 170.870,289.326 169.895,289.603 169.033 C 289.880 168.170,290.425 166.910,290.815 166.233 C 291.204 165.555,291.652 164.370,291.810 163.600 C 291.968 162.830,292.411 161.570,292.795 160.800 C 293.178 160.030,293.622 158.680,293.782 157.800 C 293.942 156.920,294.408 155.462,294.819 154.560 C 295.230 153.658,295.753 151.745,295.983 150.309 C 296.212 148.873,296.674 147.041,297.010 146.237 C 298.404 142.901,298.674 126.318,297.392 122.800 C 293.604 112.408,288.504 107.889,277.000 104.731 C 274.048 103.920,263.725 104.164,260.777 105.114 C 259.360 105.570,257.597 106.065,256.859 106.213 C 249.328 107.722,234.000 119.110,234.000 123.196 C 234.000 123.664,234.847 124.533,236.223 125.476 C 238.222 126.846,240.704 128.687,245.929 132.677 C 249.748 135.593,256.400 143.348,256.400 144.884 C 256.400 145.082,256.805 146.089,257.300 147.122 C 258.500 149.626,258.621 164.075,257.469 167.259 C 257.099 168.282,256.520 170.702,256.182 172.637 C 255.845 174.572,255.382 176.380,255.154 176.655 C 254.926 176.930,254.492 178.200,254.189 179.477 C 253.886 180.755,253.269 182.513,252.819 183.385 C 252.368 184.256,252.000 185.203,252.000 185.489 C 252.000 185.775,251.087 187.942,249.972 190.304 C 246.506 197.647,246.090 198.570,245.788 199.600 C 245.627 200.150,245.186 201.050,244.809 201.600 C 244.431 202.150,243.913 203.218,243.656 203.974 C 243.400 204.730,242.946 205.630,242.648 205.974 C 242.119 206.585,239.448 211.398,237.861 214.600 C 237.425 215.480,236.811 216.503,236.497 216.872 C 236.183 217.242,235.628 218.098,235.263 218.774 C 233.609 221.840,230.278 227.200,230.026 227.200 C 229.873 227.200,229.442 227.785,229.067 228.500 C 228.692 229.215,227.842 230.520,227.179 231.400 C 226.515 232.280,225.532 233.630,224.994 234.400 C 224.456 235.170,223.025 237.150,221.814 238.800 C 220.604 240.450,219.301 242.250,218.918 242.800 C 217.927 244.226,215.888 246.885,215.300 247.519 C 215.025 247.815,214.800 248.218,214.800 248.415 C 214.800 248.611,214.305 249.297,213.700 249.938 C 213.095 250.579,211.883 252.118,211.007 253.359 C 210.031 254.741,209.205 255.534,208.874 255.407 C 208.577 255.293,208.176 255.200,207.981 255.200 C 207.279 255.200,206.804 253.603,206.383 249.828 C 206.147 247.713,205.516 244.051,204.981 241.691 C 204.445 239.331,204.006 236.795,204.004 236.055 C 204.002 235.315,203.652 233.245,203.228 231.455 C 202.803 229.665,202.262 226.554,202.025 224.541 C 201.788 222.529,201.330 220.137,201.009 219.225 C 200.687 218.313,200.234 215.702,200.002 213.422 C 199.770 211.142,199.241 207.954,198.826 206.338 C 198.412 204.722,197.954 202.230,197.810 200.800 C 197.665 199.370,197.301 197.300,197.001 196.200 C 196.700 195.100,196.165 192.078,195.811 189.484 C 195.457 186.890,194.981 184.280,194.754 183.684 C 194.526 183.088,194.073 180.445,193.746 177.811 C 193.420 175.176,192.804 171.760,192.377 170.219 C 191.949 168.677,191.600 166.681,191.600 165.783 C 191.600 164.885,191.254 162.812,190.832 161.175 C 190.410 159.539,189.875 156.580,189.644 154.600 C 189.412 152.620,188.865 149.470,188.428 147.600 C 187.991 145.730,187.435 142.580,187.194 140.600 C 186.953 138.620,186.500 136.100,186.186 135.000 C 185.873 133.900,185.446 131.470,185.237 129.600 C 185.028 127.730,184.672 125.714,184.446 125.120 C 184.220 124.526,183.828 122.481,183.574 120.574 C 182.304 111.034,176.697 105.349,167.600 104.377 C 165.730 104.178,164.110 104.037,164.000 104.064 C 163.890 104.091,162.630 104.236,161.200 104.386 M169.344 105.401 C 169.973 105.729,171.479 106.257,172.690 106.573 C 173.902 106.890,175.278 107.498,175.747 107.924 C 176.216 108.351,177.005 108.909,177.500 109.164 C 177.995 109.419,178.400 109.866,178.400 110.156 C 178.400 110.446,178.874 111.195,179.454 111.820 C 180.034 112.446,180.680 113.582,180.891 114.345 C 181.102 115.108,181.600 116.198,181.997 116.766 C 182.523 117.518,182.783 118.875,182.952 121.743 C 183.088 124.055,183.441 126.200,183.804 126.928 C 184.145 127.611,184.598 129.887,184.811 131.985 C 185.285 136.654,185.492 137.806,186.180 139.600 C 186.476 140.370,186.893 142.989,187.107 145.419 C 187.327 147.917,187.770 150.368,188.126 151.057 C 188.492 151.765,188.928 154.250,189.166 156.989 C 189.401 159.696,189.814 162.067,190.137 162.560 C 190.449 163.036,190.905 165.528,191.161 168.150 C 191.415 170.752,191.904 173.538,192.248 174.341 C 192.591 175.143,193.032 177.718,193.227 180.063 C 193.427 182.460,193.912 185.173,194.337 186.263 C 194.773 187.381,195.212 189.884,195.376 192.186 C 195.533 194.378,195.935 196.808,196.270 197.586 C 196.605 198.364,197.129 201.210,197.435 203.912 C 197.741 206.614,198.258 209.339,198.584 209.969 C 198.913 210.604,199.338 213.146,199.541 215.686 C 199.770 218.554,200.159 220.746,200.583 221.566 C 201.013 222.398,201.384 224.536,201.603 227.443 C 201.812 230.215,202.203 232.522,202.596 233.307 C 202.967 234.047,203.423 236.567,203.662 239.200 C 203.922 242.057,204.369 244.436,204.840 245.478 C 205.258 246.401,205.604 248.021,205.608 249.078 C 205.620 251.822,206.270 255.961,206.788 256.585 C 207.429 257.357,209.910 256.510,210.744 255.234 C 211.105 254.681,211.805 253.791,212.300 253.256 C 212.795 252.721,213.200 251.962,213.200 251.569 C 213.200 251.175,213.551 250.743,213.980 250.606 C 214.408 250.470,214.883 249.963,215.035 249.480 C 215.187 248.996,215.691 248.230,216.156 247.778 C 217.443 246.525,218.820 244.712,219.330 243.600 C 219.582 243.050,220.105 242.365,220.494 242.077 C 220.882 241.790,221.200 241.380,221.200 241.167 C 221.200 240.953,222.190 239.578,223.400 238.112 C 224.610 236.645,225.600 235.216,225.600 234.936 C 225.600 234.657,225.935 234.249,226.345 234.029 C 226.755 233.810,227.317 233.084,227.594 232.415 C 227.871 231.747,228.262 231.200,228.463 231.200 C 228.664 231.200,229.164 230.416,229.575 229.458 C 229.986 228.500,230.610 227.605,230.961 227.470 C 231.312 227.335,231.600 226.974,231.600 226.668 C 231.600 226.361,232.140 225.431,232.800 224.600 C 233.460 223.769,234.000 222.867,234.000 222.594 C 234.000 222.321,234.272 221.872,234.605 221.596 C 234.937 221.320,235.538 220.353,235.940 219.447 C 236.341 218.541,236.969 217.553,237.335 217.251 C 237.701 216.949,238.000 216.378,238.000 215.982 C 238.000 215.586,238.438 214.740,238.974 214.104 C 239.510 213.467,240.073 212.449,240.225 211.841 C 240.378 211.233,240.741 210.644,241.032 210.532 C 241.323 210.421,241.772 209.670,242.030 208.865 C 242.288 208.059,242.834 207.031,243.243 206.581 C 243.653 206.130,244.101 205.194,244.240 204.501 C 244.378 203.808,244.832 202.933,245.248 202.557 C 245.663 202.181,246.200 201.143,246.440 200.251 C 246.681 199.358,247.220 198.193,247.639 197.660 C 248.057 197.128,248.406 196.311,248.412 195.846 C 248.419 195.381,248.868 194.280,249.410 193.400 C 249.952 192.520,250.397 191.520,250.398 191.178 C 250.399 190.835,250.837 189.963,251.371 189.239 C 251.906 188.515,252.469 187.175,252.623 186.261 C 252.776 185.347,253.230 184.182,253.631 183.672 C 254.032 183.161,254.475 181.901,254.616 180.872 C 254.756 179.842,255.224 178.501,255.654 177.891 C 256.154 177.183,256.568 175.634,256.799 173.606 C 257.008 171.776,257.466 169.966,257.881 169.333 C 258.977 167.661,258.977 147.301,257.881 146.090 C 257.485 145.652,256.970 144.600,256.735 143.751 C 256.501 142.902,255.880 141.697,255.355 141.073 C 254.830 140.449,254.400 139.785,254.400 139.596 C 254.400 139.408,254.059 139.146,253.643 139.014 C 253.227 138.882,252.790 138.406,252.673 137.957 C 252.555 137.508,252.108 137.049,251.678 136.936 C 251.249 136.824,250.699 136.297,250.457 135.766 C 250.215 135.235,249.772 134.800,249.473 134.800 C 249.173 134.800,248.723 134.350,248.473 133.800 C 248.222 133.250,247.807 132.800,247.551 132.800 C 247.294 132.800,246.705 132.442,246.242 132.004 C 244.110 129.989,243.088 129.162,242.083 128.643 C 241.486 128.334,240.656 127.703,240.237 127.241 C 239.818 126.778,239.243 126.400,238.958 126.400 C 238.673 126.400,238.296 126.154,238.120 125.854 C 237.944 125.554,237.215 125.009,236.500 124.644 C 235.785 124.278,235.200 123.927,235.200 123.862 C 235.200 122.698,236.583 119.596,237.188 119.404 C 237.612 119.269,238.070 118.808,238.206 118.380 C 238.343 117.951,238.605 117.600,238.789 117.600 C 239.131 117.600,241.846 115.544,243.541 114.002 C 244.059 113.531,244.914 112.949,245.441 112.709 C 245.968 112.468,246.400 112.123,246.400 111.941 C 246.400 111.759,247.041 111.343,247.823 111.016 C 248.606 110.689,249.711 110.056,250.277 109.611 C 250.844 109.165,251.707 108.800,252.194 108.800 C 252.682 108.800,253.927 108.350,254.962 107.800 C 255.996 107.250,257.418 106.794,258.121 106.787 C 258.825 106.780,260.390 106.415,261.600 105.975 C 265.486 104.565,272.610 104.460,276.821 105.751 C 278.702 106.328,280.484 106.800,280.780 106.800 C 281.435 106.800,286.258 109.165,287.305 110.000 C 289.069 111.405,293.200 115.541,293.200 115.900 C 293.200 116.116,293.580 116.776,294.045 117.367 C 294.510 117.958,295.141 119.274,295.448 120.292 C 295.754 121.309,296.316 122.486,296.696 122.906 C 297.859 124.192,297.687 142.342,296.489 144.653 C 296.006 145.585,295.516 147.504,295.366 149.053 C 295.219 150.564,294.777 152.340,294.383 153.000 C 293.988 153.660,293.456 155.370,293.200 156.800 C 292.943 158.230,292.452 159.714,292.108 160.097 C 291.763 160.480,291.338 161.699,291.164 162.805 C 290.989 163.911,290.490 165.267,290.056 165.820 C 289.622 166.372,289.143 167.551,288.993 168.440 C 288.843 169.328,288.470 170.152,288.163 170.269 C 287.857 170.387,287.349 171.319,287.034 172.342 C 286.720 173.364,286.088 174.913,285.631 175.785 C 285.174 176.656,284.800 177.593,284.800 177.867 C 284.800 178.141,284.350 179.028,283.800 179.838 C 283.250 180.649,282.800 181.640,282.800 182.042 C 282.800 182.443,282.454 182.957,282.032 183.183 C 281.610 183.409,281.047 184.270,280.783 185.097 C 280.518 185.924,279.966 186.969,279.557 187.419 C 279.147 187.870,278.694 188.830,278.549 189.554 C 278.405 190.277,278.051 190.959,277.762 191.070 C 277.474 191.180,277.024 191.930,276.761 192.735 C 276.499 193.541,275.860 194.709,275.342 195.331 C 274.824 195.953,274.400 196.690,274.400 196.969 C 274.400 197.248,274.042 197.800,273.605 198.195 C 273.168 198.591,272.592 199.519,272.325 200.257 C 272.058 200.996,271.700 201.600,271.530 201.600 C 271.360 201.600,270.922 202.185,270.556 202.900 C 270.191 203.615,269.660 204.336,269.376 204.503 C 269.092 204.670,268.646 205.456,268.384 206.249 C 268.122 207.043,267.573 208.027,267.164 208.436 C 266.755 208.845,266.295 209.677,266.143 210.285 C 265.990 210.893,265.446 211.721,264.933 212.124 C 264.420 212.528,264.000 213.087,264.000 213.367 C 264.000 213.647,263.656 214.187,263.237 214.567 C 262.817 214.947,262.241 215.830,261.957 216.529 C 261.673 217.228,261.116 218.035,260.720 218.323 C 260.324 218.610,260.000 219.106,260.000 219.425 C 260.000 219.744,259.563 220.385,259.029 220.849 C 258.495 221.314,257.849 222.200,257.593 222.818 C 257.336 223.437,256.871 224.041,256.557 224.161 C 256.244 224.281,255.810 224.789,255.592 225.290 C 255.375 225.790,254.571 227.010,253.806 228.000 C 253.042 228.990,252.117 230.340,251.752 231.000 C 251.123 232.137,250.193 233.388,248.364 235.558 C 247.920 236.085,247.455 237.025,247.331 237.646 C 247.206 238.268,246.766 238.884,246.352 239.015 C 245.939 239.146,245.600 239.392,245.600 239.561 C 245.600 239.871,243.198 243.124,241.905 244.566 C 241.522 244.992,241.091 245.714,240.947 246.171 C 240.803 246.627,240.351 247.235,239.943 247.523 C 239.534 247.810,239.200 248.228,239.200 248.452 C 239.200 248.676,238.210 250.026,237.000 251.452 C 235.790 252.879,234.800 254.285,234.800 254.577 C 234.800 254.869,234.350 255.403,233.800 255.763 C 233.250 256.124,232.800 256.625,232.800 256.878 C 232.800 257.131,231.900 258.373,230.800 259.637 C 229.700 260.902,228.800 262.124,228.800 262.352 C 228.800 262.581,228.346 263.270,227.791 263.884 C 225.943 265.927,222.400 270.497,222.400 270.837 C 222.400 271.022,221.905 271.710,221.300 272.368 C 220.695 273.025,219.840 274.047,219.400 274.639 C 218.960 275.231,218.196 276.146,217.702 276.674 C 217.208 277.201,216.547 278.128,216.234 278.734 C 215.921 279.339,214.842 280.727,213.837 281.817 C 212.831 282.908,212.007 283.940,212.004 284.112 C 212.002 284.284,211.010 285.591,209.800 287.017 C 208.590 288.444,207.600 289.866,207.600 290.178 C 207.600 290.491,207.267 290.852,206.861 290.981 C 206.454 291.110,205.918 291.662,205.669 292.208 C 205.343 292.923,204.902 293.200,204.089 293.200 C 201.515 293.200,192.097 294.069,190.800 294.427 C 190.030 294.639,185.016 294.996,179.657 295.220 C 169.545 295.643,168.803 295.563,168.798 294.051 C 168.796 293.693,168.513 292.860,168.169 292.200 C 167.802 291.498,167.388 289.108,167.171 286.440 C 166.954 283.783,166.535 281.362,166.167 280.640 C 165.820 279.958,165.366 277.510,165.158 275.200 C 164.949 272.890,164.432 269.830,164.009 268.400 C 163.585 266.970,163.037 263.910,162.791 261.600 C 162.544 259.290,162.095 257.015,161.792 256.545 C 161.480 256.061,161.055 253.552,160.813 250.764 C 160.550 247.733,160.156 245.487,159.789 244.927 C 159.422 244.367,159.047 242.228,158.814 239.365 C 158.559 236.243,158.217 234.380,157.772 233.701 C 157.327 233.022,156.989 231.183,156.743 228.114 C 156.542 225.598,156.038 222.517,155.622 221.269 C 155.207 220.021,154.746 217.470,154.597 215.601 C 154.449 213.731,154.054 211.571,153.718 210.801 C 153.383 210.030,152.878 207.036,152.594 204.147 C 152.264 200.770,151.852 198.546,151.442 197.920 C 151.020 197.277,150.667 195.270,150.400 192.000 C 150.139 188.800,149.777 186.719,149.375 186.106 C 148.985 185.511,148.621 183.523,148.397 180.760 C 148.199 178.322,147.766 175.813,147.426 175.132 C 147.089 174.455,146.613 171.899,146.369 169.451 C 146.125 167.003,145.599 164.010,145.199 162.800 C 144.799 161.590,144.357 158.903,144.216 156.828 C 144.063 154.574,143.655 152.321,143.201 151.228 C 142.754 150.154,142.282 147.585,142.055 145.000 C 141.793 142.023,141.383 139.953,140.785 138.600 C 139.144 134.884,141.005 135.200,120.729 135.200 L 102.781 135.200 102.891 128.362 L 103.000 121.525 104.560 120.989 C 105.418 120.694,106.236 120.266,106.377 120.037 C 106.519 119.808,107.931 119.437,109.516 119.212 C 111.100 118.987,113.070 118.443,113.892 118.002 C 114.715 117.561,115.823 117.200,116.355 117.200 C 116.888 117.200,118.240 116.774,119.361 116.253 C 120.483 115.732,122.458 115.187,123.752 115.043 C 125.045 114.899,126.575 114.449,127.152 114.043 C 127.728 113.637,129.280 113.175,130.600 113.017 C 131.920 112.858,133.540 112.400,134.200 112.000 C 134.860 111.600,136.480 111.143,137.800 110.986 C 140.114 110.710,141.576 110.218,142.004 109.572 C 142.116 109.403,143.714 109.058,145.555 108.806 C 147.497 108.540,149.343 108.039,149.952 107.613 C 150.647 107.126,152.076 106.794,154.200 106.626 C 155.960 106.487,158.390 106.025,159.600 105.599 C 162.352 104.632,167.662 104.524,169.344 105.401 " stroke="none" fill="#aaead9" fill-rule="evenodd"></path><path id="path3" d="M35.600 0.600 C 35.600 0.930,35.870 1.200,36.200 1.200 C 36.530 1.200,36.800 0.930,36.800 0.600 C 36.800 0.270,36.530 0.000,36.200 0.000 C 35.870 0.000,35.600 0.270,35.600 0.600 M30.000 1.977 C 30.000 2.560,29.782 2.712,29.129 2.586 C 28.508 2.467,28.382 2.542,28.689 2.849 C 29.320 3.480,30.620 2.928,30.690 2.000 C 30.723 1.560,30.581 1.200,30.375 1.200 C 30.169 1.200,30.000 1.550,30.000 1.977 M24.800 4.314 C 24.800 4.487,25.160 4.629,25.600 4.629 C 26.040 4.629,26.400 4.487,26.400 4.314 C 26.400 4.141,26.040 4.000,25.600 4.000 C 25.160 4.000,24.800 4.141,24.800 4.314 M19.200 7.957 C 19.200 8.227,18.992 8.319,18.738 8.162 C 18.465 7.993,18.384 8.051,18.541 8.304 C 18.686 8.539,18.579 8.823,18.302 8.934 C 17.989 9.060,17.970 9.149,18.251 9.168 C 18.834 9.209,19.793 8.060,19.457 7.724 C 19.316 7.582,19.200 7.687,19.200 7.957 M380.432 7.851 C 380.391 8.434,381.540 9.393,381.876 9.057 C 382.018 8.916,381.913 8.800,381.643 8.800 C 381.373 8.800,381.281 8.592,381.438 8.338 C 381.607 8.065,381.549 7.984,381.296 8.141 C 381.061 8.286,380.777 8.179,380.666 7.902 C 380.540 7.589,380.451 7.570,380.432 7.851 M8.800 18.357 C 8.800 18.627,8.592 18.719,8.338 18.562 C 8.052 18.385,7.985 18.452,8.162 18.738 C 8.319 18.992,8.246 19.200,8.000 19.200 C 7.754 19.200,7.672 19.393,7.818 19.629 C 7.983 19.897,8.310 19.736,8.683 19.204 C 9.012 18.733,9.173 18.240,9.041 18.107 C 8.908 17.975,8.800 18.087,8.800 18.357 M390.832 18.251 C 390.791 18.834,391.940 19.793,392.276 19.457 C 392.418 19.316,392.313 19.200,392.043 19.200 C 391.773 19.200,391.681 18.992,391.838 18.738 C 392.007 18.465,391.949 18.384,391.696 18.541 C 391.461 18.686,391.177 18.579,391.066 18.302 C 390.940 17.989,390.851 17.970,390.832 18.251 M396.922 29.058 C 396.768 29.461,396.958 29.926,397.411 30.258 C 398.290 30.900,398.800 30.952,398.800 30.400 C 398.800 30.180,398.450 30.000,398.023 30.000 C 397.461 30.000,397.289 29.778,397.400 29.200 C 397.586 28.234,397.274 28.142,396.922 29.058 M398.800 36.200 C 398.800 36.530,399.070 36.800,399.400 36.800 C 399.730 36.800,400.000 36.530,400.000 36.200 C 400.000 35.870,399.730 35.600,399.400 35.600 C 399.070 35.600,398.800 35.870,398.800 36.200 M155.107 103.546 C 154.285 103.686,153.253 104.111,152.814 104.490 C 152.277 104.953,150.960 105.268,148.807 105.448 C 146.347 105.653,145.302 105.935,144.322 106.658 C 143.403 107.335,142.512 107.600,141.148 107.600 C 139.058 107.600,137.298 108.137,136.633 108.978 C 136.370 109.310,135.143 109.586,133.513 109.681 C 131.433 109.801,130.614 110.035,129.887 110.718 C 129.212 111.353,128.451 111.601,127.174 111.602 C 124.973 111.605,122.524 112.260,122.111 112.956 C 121.935 113.253,120.672 113.592,119.200 113.737 C 117.260 113.929,116.425 114.206,115.912 114.827 C 115.362 115.491,114.598 115.707,112.134 115.894 C 109.584 116.086,108.892 116.291,108.176 117.064 C 107.481 117.813,106.895 118.000,105.236 118.000 C 101.352 118.000,101.200 118.392,101.200 128.382 C 101.200 139.713,98.637 138.400,120.752 138.400 L 138.705 138.400 138.870 142.191 C 139.003 145.212,139.203 146.207,139.857 147.092 C 140.531 148.004,140.716 149.010,140.892 152.740 C 141.066 156.398,141.260 157.485,141.894 158.342 C 142.535 159.209,142.718 160.277,142.889 164.135 C 143.060 168.028,143.239 169.056,143.899 169.950 C 144.550 170.830,144.758 171.965,144.998 175.964 C 145.248 180.135,145.418 181.018,146.102 181.702 C 146.798 182.398,146.949 183.249,147.189 187.850 C 147.421 192.301,147.595 193.331,148.234 194.036 C 148.866 194.734,149.038 195.711,149.219 199.634 C 149.407 203.695,149.567 204.559,150.319 205.577 C 151.067 206.588,151.201 207.297,151.210 210.284 C 151.220 214.239,151.687 216.780,152.513 217.389 C 152.912 217.683,153.142 219.218,153.320 222.781 C 153.524 226.872,153.711 227.954,154.366 228.839 C 155.010 229.710,155.213 230.826,155.427 234.658 C 155.638 238.454,155.859 239.679,156.534 240.800 C 157.210 241.922,157.419 243.087,157.589 246.667 C 157.769 250.471,157.933 251.314,158.700 252.351 C 159.493 253.423,159.600 254.046,159.600 257.597 C 159.600 261.503,160.248 264.400,161.122 264.400 C 161.322 264.400,161.581 266.695,161.698 269.500 C 161.896 274.229,162.447 276.800,163.264 276.800 C 163.449 276.800,163.606 277.925,163.613 279.300 C 163.633 283.066,164.256 287.176,164.922 287.930 C 165.289 288.344,165.615 289.897,165.778 292.000 C 166.186 297.259,166.298 297.598,167.846 298.245 C 169.533 298.950,179.792 298.295,180.800 297.418 C 181.251 297.026,184.205 296.848,192.685 296.704 C 202.228 296.541,204.125 296.410,204.967 295.858 C 206.562 294.814,209.200 291.992,209.200 291.331 C 209.200 290.998,209.562 290.630,210.004 290.515 C 210.447 290.399,210.911 289.898,211.035 289.402 C 211.160 288.906,211.698 288.302,212.231 288.059 C 212.779 287.809,213.200 287.275,213.200 286.828 C 213.200 286.395,213.430 285.896,213.710 285.720 C 214.530 285.206,217.600 281.145,217.600 280.575 C 217.600 280.288,217.960 279.940,218.399 279.800 C 218.839 279.661,219.308 279.109,219.442 278.573 C 219.577 278.038,219.946 277.600,220.264 277.600 C 220.581 277.600,221.086 277.015,221.385 276.300 C 221.685 275.585,222.396 274.564,222.965 274.030 C 223.534 273.497,224.000 272.828,224.000 272.544 C 224.000 272.260,224.360 271.835,224.800 271.600 C 225.240 271.365,225.600 270.912,225.600 270.595 C 225.600 270.278,226.037 269.732,226.570 269.383 C 227.104 269.033,227.719 268.264,227.938 267.674 C 228.156 267.083,229.160 265.746,230.167 264.701 C 231.175 263.657,232.000 262.485,232.000 262.096 C 232.000 261.708,232.393 261.212,232.874 260.995 C 233.355 260.778,233.914 260.092,234.117 259.471 C 234.320 258.850,235.278 257.528,236.245 256.532 C 237.213 255.537,238.109 254.307,238.236 253.799 C 238.363 253.291,238.814 252.785,239.237 252.675 C 239.705 252.552,240.103 251.986,240.255 251.225 C 240.392 250.538,240.907 249.659,241.399 249.273 C 241.890 248.886,242.412 248.191,242.559 247.728 C 242.706 247.265,243.181 246.794,243.613 246.681 C 244.061 246.563,244.400 246.134,244.400 245.683 C 244.400 245.248,244.850 244.597,245.400 244.237 C 245.950 243.876,246.400 243.322,246.400 243.005 C 246.400 242.687,246.940 241.813,247.600 241.061 C 248.260 240.309,248.800 239.386,248.800 239.010 C 248.800 238.633,249.154 238.233,249.587 238.119 C 250.019 238.006,250.483 237.567,250.618 237.144 C 250.752 236.721,251.253 235.939,251.731 235.406 C 253.805 233.095,254.800 231.638,254.800 230.909 C 254.800 230.465,255.230 229.932,255.800 229.673 C 256.350 229.422,256.800 228.968,256.800 228.664 C 256.800 228.359,257.340 227.431,258.000 226.600 C 258.660 225.769,259.200 224.797,259.200 224.440 C 259.200 224.082,259.599 223.612,260.087 223.395 C 260.575 223.178,261.070 222.607,261.187 222.126 C 261.304 221.645,261.805 220.789,262.300 220.223 C 262.795 219.657,263.200 218.831,263.200 218.387 C 263.200 217.903,263.585 217.434,264.163 217.214 C 264.763 216.986,265.223 216.405,265.384 215.674 C 265.525 215.029,266.082 214.086,266.621 213.581 C 267.159 213.075,267.600 212.344,267.600 211.957 C 267.600 211.570,267.967 211.137,268.416 210.995 C 268.895 210.843,269.327 210.263,269.461 209.596 C 269.586 208.969,270.119 208.052,270.644 207.558 C 271.170 207.065,271.600 206.263,271.600 205.777 C 271.600 205.231,271.904 204.814,272.395 204.685 C 272.833 204.571,273.385 203.965,273.622 203.339 C 273.859 202.712,274.382 201.840,274.783 201.400 C 275.185 200.960,275.629 200.054,275.770 199.387 C 275.910 198.719,276.470 197.656,277.013 197.025 C 277.556 196.393,278.000 195.556,278.000 195.165 C 278.000 194.774,278.341 194.346,278.757 194.214 C 279.527 193.969,279.985 192.901,279.995 191.327 C 279.998 190.818,280.323 190.351,280.775 190.208 C 281.202 190.073,281.748 189.362,281.990 188.629 C 282.232 187.896,282.783 186.977,283.215 186.586 C 283.647 186.196,284.000 185.468,284.000 184.969 C 284.000 184.470,284.451 183.525,285.002 182.871 C 285.553 182.216,286.114 181.131,286.248 180.460 C 286.382 179.790,286.834 178.931,287.252 178.553 C 287.670 178.175,288.122 177.175,288.257 176.333 C 288.392 175.490,288.668 174.800,288.872 174.800 C 289.385 174.800,290.400 172.249,290.400 170.959 C 290.400 170.334,290.815 169.507,291.400 168.965 C 292.084 168.331,292.400 167.614,292.400 166.697 C 292.400 165.915,292.794 164.821,293.345 164.074 C 293.933 163.277,294.389 161.953,294.552 160.573 C 294.706 159.262,295.118 158.026,295.558 157.553 C 296.336 156.718,296.788 154.816,296.796 152.343 C 296.798 151.448,297.022 150.800,297.375 150.665 C 298.247 150.330,298.795 147.777,298.798 144.044 C 298.800 141.386,298.938 140.588,299.462 140.204 C 300.878 139.169,300.923 128.100,299.517 126.515 C 299.088 126.032,298.834 124.781,298.732 122.657 C 298.605 120.030,298.439 119.399,297.719 118.816 C 297.246 118.433,296.731 117.440,296.576 116.610 C 296.420 115.780,295.867 114.731,295.346 114.278 C 294.826 113.826,294.400 113.214,294.400 112.918 C 294.400 112.622,293.950 112.209,293.400 112.000 C 292.850 111.791,292.400 111.350,292.400 111.020 C 292.400 110.690,291.860 110.141,291.200 109.800 C 290.540 109.459,290.000 109.009,290.000 108.800 C 290.000 108.591,289.415 108.125,288.700 107.763 C 287.985 107.402,287.040 106.789,286.600 106.401 C 286.160 106.013,284.980 105.578,283.978 105.435 C 282.947 105.287,281.874 104.845,281.506 104.416 C 280.047 102.712,259.506 102.631,257.222 104.320 C 256.506 104.850,255.126 105.341,253.971 105.478 C 252.704 105.628,251.780 105.979,251.464 106.430 C 251.189 106.822,250.432 107.263,249.782 107.409 C 247.483 107.925,247.238 108.049,246.994 108.820 C 246.837 109.313,246.386 109.600,245.769 109.600 C 245.230 109.600,244.231 110.137,243.537 110.800 C 242.846 111.460,242.050 112.000,241.768 112.000 C 241.485 112.000,241.140 112.360,241.000 112.800 C 240.860 113.240,240.584 113.600,240.387 113.600 C 240.189 113.600,239.475 114.140,238.800 114.800 C 238.125 115.460,237.411 116.000,237.213 116.000 C 237.016 116.000,236.743 116.351,236.606 116.780 C 236.470 117.208,236.026 117.665,235.619 117.794 C 235.212 117.923,234.771 118.460,234.639 118.988 C 234.506 119.515,234.058 120.055,233.642 120.187 C 232.082 120.682,231.852 125.011,233.355 125.583 C 233.880 125.782,234.772 126.408,235.337 126.973 C 235.901 127.538,236.610 128.000,236.912 128.000 C 237.214 128.000,237.883 128.450,238.400 129.000 C 238.917 129.550,239.656 130.000,240.043 130.000 C 240.430 130.000,240.864 130.370,241.007 130.823 C 241.151 131.276,241.703 131.811,242.234 132.013 C 242.765 132.215,243.200 132.561,243.200 132.782 C 243.200 133.003,243.875 133.537,244.700 133.969 C 246.808 135.072,253.600 142.284,253.600 143.418 C 253.600 143.713,253.939 144.192,254.354 144.483 C 254.872 144.845,255.240 145.859,255.530 147.719 C 255.761 149.208,256.343 151.060,256.821 151.834 C 258.035 153.798,257.850 160.330,256.528 162.200 C 255.838 163.177,255.635 164.213,255.440 167.771 C 255.244 171.326,255.059 172.272,254.449 172.840 C 253.933 173.321,253.611 174.388,253.414 176.269 C 253.223 178.092,252.875 179.273,252.367 179.823 C 251.948 180.275,251.492 181.535,251.353 182.623 C 251.198 183.831,250.810 184.833,250.355 185.200 C 249.946 185.530,249.450 186.666,249.253 187.724 C 249.056 188.782,248.513 190.054,248.047 190.550 C 247.581 191.046,247.200 191.831,247.200 192.295 C 247.200 192.759,246.775 193.647,246.256 194.269 C 245.723 194.908,245.190 196.227,245.032 197.299 C 244.847 198.547,244.494 199.336,244.000 199.600 C 243.521 199.856,243.153 200.642,242.984 201.765 C 242.804 202.965,242.496 203.586,242.016 203.712 C 241.630 203.813,241.193 204.374,241.046 204.958 C 240.900 205.542,240.434 206.366,240.011 206.789 C 239.588 207.212,239.053 208.259,238.823 209.115 C 238.592 209.972,238.043 210.999,237.602 211.398 C 237.161 211.798,236.800 212.532,236.800 213.031 C 236.800 213.530,236.375 214.447,235.855 215.069 C 235.335 215.691,234.783 216.605,234.628 217.100 C 234.473 217.596,233.998 218.187,233.573 218.414 C 233.148 218.642,232.800 219.067,232.800 219.359 C 232.800 219.651,232.260 220.569,231.600 221.400 C 230.940 222.231,230.400 223.316,230.400 223.812 C 230.400 224.308,230.122 224.821,229.782 224.952 C 229.442 225.082,228.902 225.815,228.583 226.580 C 228.263 227.345,227.641 228.164,227.201 228.400 C 226.760 228.635,226.400 229.161,226.400 229.568 C 226.400 229.975,225.950 230.603,225.400 230.963 C 224.850 231.324,224.400 231.856,224.400 232.147 C 224.400 232.438,223.945 233.199,223.390 233.838 C 222.834 234.477,222.279 235.388,222.156 235.862 C 222.033 236.336,221.586 236.815,221.163 236.925 C 220.695 237.048,220.297 237.614,220.145 238.375 C 220.008 239.062,219.493 239.941,219.001 240.327 C 218.510 240.714,217.988 241.409,217.841 241.872 C 217.694 242.335,217.219 242.806,216.787 242.919 C 216.317 243.042,216.000 243.466,216.000 243.972 C 216.000 244.500,215.636 244.958,215.037 245.186 C 214.437 245.414,213.977 245.995,213.816 246.726 C 213.675 247.371,213.118 248.314,212.579 248.819 C 212.041 249.325,211.600 250.047,211.600 250.423 C 211.600 250.799,211.227 251.204,210.770 251.324 C 210.314 251.443,209.843 251.914,209.724 252.370 C 209.424 253.516,208.800 253.414,208.800 252.219 C 208.800 251.133,208.028 249.200,207.595 249.200 C 207.442 249.200,207.218 247.034,207.096 244.386 C 206.923 240.630,206.712 239.334,206.137 238.486 C 205.578 237.663,205.298 236.076,204.979 231.919 C 204.638 227.468,204.415 226.279,203.792 225.591 C 203.165 224.899,202.974 223.855,202.745 219.872 C 202.591 217.192,202.451 214.968,202.433 214.929 C 202.415 214.889,202.085 214.543,201.700 214.159 C 201.140 213.600,200.960 212.521,200.800 208.763 C 200.632 204.820,200.466 203.884,199.762 202.933 C 199.049 201.969,198.892 201.034,198.703 196.653 C 198.513 192.266,198.356 191.337,197.640 190.369 C 197.017 189.526,196.798 188.633,196.792 186.916 C 196.780 183.512,196.134 179.612,195.457 178.859 C 195.043 178.397,194.785 176.763,194.597 173.400 C 194.372 169.388,194.186 168.403,193.464 167.400 C 192.720 166.367,192.572 165.495,192.400 161.133 C 192.229 156.795,192.078 155.901,191.355 154.923 C 190.647 153.967,190.480 153.051,190.325 149.283 C 190.172 145.571,189.997 144.592,189.324 143.682 C 188.643 142.760,188.478 141.801,188.328 137.888 C 188.179 133.988,188.012 133.012,187.338 132.099 C 186.674 131.197,186.478 130.104,186.248 126.005 C 186.027 122.074,185.796 120.720,185.163 119.647 C 184.702 118.865,184.256 117.177,184.116 115.685 C 183.928 113.673,183.669 112.907,182.969 112.298 C 182.472 111.866,181.957 111.082,181.825 110.556 C 181.693 110.030,181.314 109.600,180.982 109.600 C 180.651 109.600,180.215 109.165,180.013 108.634 C 179.811 108.103,179.295 107.557,178.866 107.421 C 178.437 107.285,178.001 106.847,177.896 106.447 C 177.782 106.010,177.176 105.615,176.373 105.455 C 175.639 105.308,174.611 104.785,174.088 104.294 C 173.105 103.370,159.332 102.827,155.107 103.546 M172.776 104.719 C 173.356 105.148,174.364 105.617,175.016 105.760 C 175.667 105.904,177.010 106.811,178.000 107.776 C 180.644 110.354,181.074 110.876,181.641 112.200 C 181.924 112.860,182.401 113.697,182.703 114.060 C 183.005 114.423,183.496 116.133,183.795 117.860 C 184.094 119.587,184.606 121.990,184.934 123.200 C 185.261 124.410,185.643 126.840,185.782 128.600 C 185.921 130.360,186.378 132.790,186.796 134.000 C 187.214 135.210,187.737 138.181,187.958 140.603 C 188.179 143.025,188.620 145.635,188.937 146.403 C 189.255 147.171,189.716 149.673,189.962 151.961 C 190.209 154.250,190.688 156.941,191.028 157.942 C 191.367 158.942,191.808 161.609,192.006 163.868 C 192.205 166.133,192.651 168.524,192.999 169.199 C 193.364 169.904,193.809 172.406,194.050 175.111 C 194.280 177.690,194.794 180.790,195.191 182.000 C 195.588 183.210,196.036 185.550,196.186 187.200 C 196.336 188.850,196.800 191.460,197.218 193.000 C 197.635 194.540,198.147 197.600,198.357 199.800 C 198.567 202.000,199.011 204.340,199.343 205.000 C 199.676 205.660,200.149 208.406,200.395 211.101 C 200.641 213.797,201.100 216.621,201.417 217.378 C 201.733 218.134,202.185 220.519,202.422 222.677 C 202.658 224.835,203.118 227.394,203.443 228.364 C 203.768 229.334,204.227 232.124,204.464 234.564 C 204.701 237.004,205.149 239.497,205.459 240.103 C 205.770 240.710,206.223 243.140,206.465 245.503 C 207.188 252.545,208.493 255.741,209.839 253.761 C 210.797 252.351,211.794 251.078,212.800 249.982 C 213.350 249.382,214.070 248.443,214.400 247.894 C 215.696 245.740,217.194 243.721,218.761 242.016 C 219.662 241.035,220.400 240.025,220.400 239.771 C 220.400 239.517,220.895 238.663,221.500 237.871 C 222.105 237.080,223.050 235.785,223.600 234.992 C 224.150 234.200,224.909 233.157,225.287 232.676 C 227.302 230.107,228.800 227.950,228.800 227.619 C 228.800 227.414,229.119 227.010,229.509 226.723 C 229.899 226.435,230.556 225.435,230.970 224.500 C 231.383 223.565,231.862 222.800,232.034 222.800 C 232.206 222.800,232.473 222.399,232.629 221.909 C 232.931 220.956,235.215 217.394,236.163 216.397 C 236.478 216.065,236.865 215.255,237.022 214.597 C 237.179 213.939,237.564 213.104,237.878 212.742 C 238.191 212.380,239.171 210.670,240.054 208.942 C 240.937 207.214,241.914 205.518,242.225 205.174 C 242.536 204.830,243.003 203.938,243.263 203.192 C 243.523 202.446,244.155 201.218,244.668 200.462 C 245.180 199.707,245.600 198.745,245.600 198.326 C 245.600 197.906,246.050 196.718,246.600 195.685 C 247.150 194.652,247.600 193.604,247.600 193.357 C 247.600 193.110,247.934 192.479,248.342 191.954 C 248.750 191.429,249.312 190.280,249.590 189.400 C 249.869 188.520,250.435 187.239,250.849 186.553 C 251.262 185.867,251.600 184.949,251.600 184.512 C 251.600 184.076,252.020 182.927,252.534 181.960 C 253.048 180.992,253.596 179.398,253.752 178.417 C 253.908 177.436,254.398 175.816,254.841 174.817 C 255.283 173.818,255.825 171.576,256.043 169.835 C 256.262 168.095,256.590 166.385,256.772 166.035 C 258.094 163.499,258.278 150.495,257.020 148.575 C 256.715 148.109,256.253 146.939,255.993 145.975 C 255.734 145.011,255.089 143.708,254.561 143.080 C 254.032 142.452,253.600 141.734,253.600 141.483 C 253.600 141.233,253.244 140.662,252.809 140.214 C 249.223 136.522,246.178 133.639,244.980 132.800 C 243.072 131.464,240.386 129.403,239.400 128.518 C 238.961 128.124,238.124 127.531,237.541 127.200 C 232.283 124.222,232.044 123.310,235.455 119.270 C 236.695 117.802,237.957 116.455,238.259 116.278 C 238.561 116.101,239.239 115.561,239.766 115.078 C 241.981 113.049,245.486 110.537,246.900 109.966 C 247.505 109.722,248.000 109.374,248.000 109.194 C 248.000 109.014,248.855 108.551,249.900 108.165 C 250.945 107.780,252.079 107.230,252.420 106.943 C 252.761 106.656,254.201 106.176,255.620 105.877 C 257.039 105.578,258.830 104.989,259.600 104.570 C 260.854 103.887,261.898 103.807,269.600 103.807 L 278.200 103.806 280.197 104.903 C 281.295 105.506,282.645 106.003,283.197 106.006 C 283.749 106.009,285.100 106.645,286.200 107.419 C 287.300 108.192,288.830 109.247,289.600 109.762 C 291.222 110.848,293.906 113.757,294.512 115.086 C 294.741 115.589,295.066 116.000,295.233 116.000 C 295.401 116.000,295.754 116.675,296.017 117.500 C 296.281 118.325,296.844 119.575,297.267 120.277 C 297.946 121.403,299.276 129.390,299.252 132.200 C 299.218 136.354,297.932 146.867,297.270 148.400 C 296.843 149.390,296.371 151.188,296.220 152.396 C 296.070 153.603,295.618 155.133,295.216 155.796 C 294.814 156.458,294.358 157.810,294.204 158.800 C 294.050 159.790,293.590 161.180,293.182 161.888 C 292.774 162.597,292.325 163.857,292.183 164.688 C 292.041 165.520,291.590 166.677,291.180 167.260 C 290.771 167.843,290.312 168.833,290.161 169.460 C 290.010 170.087,289.482 171.320,288.988 172.200 C 288.494 173.080,287.976 174.450,287.837 175.245 C 287.698 176.040,287.246 176.997,286.832 177.371 C 286.418 177.746,285.967 178.652,285.829 179.386 C 285.691 180.119,285.347 180.912,285.063 181.148 C 284.779 181.384,283.678 183.292,282.616 185.388 C 281.555 187.485,280.546 189.200,280.374 189.200 C 280.203 189.200,279.846 189.854,279.582 190.654 C 279.108 192.090,277.971 194.048,276.478 196.000 C 276.057 196.550,275.579 197.450,275.416 198.000 C 275.146 198.912,274.519 200.008,272.669 202.800 C 270.660 205.832,269.325 207.917,268.796 208.851 C 267.532 211.082,265.973 213.200,265.595 213.200 C 265.378 213.200,265.200 213.535,265.200 213.945 C 265.200 214.355,264.705 215.340,264.100 216.135 C 261.339 219.763,260.800 220.561,260.800 221.015 C 260.800 221.283,260.506 221.746,260.147 222.044 C 259.788 222.342,259.113 223.153,258.647 223.847 C 258.181 224.541,256.554 226.974,255.031 229.254 C 253.508 231.534,251.992 233.622,251.663 233.894 C 251.334 234.165,250.690 234.992,250.232 235.731 C 248.161 239.076,247.497 240.000,247.166 240.000 C 246.971 240.000,246.537 240.585,246.202 241.300 C 245.433 242.941,243.724 245.290,241.629 247.584 C 240.733 248.565,240.000 249.583,240.000 249.846 C 240.000 250.282,238.075 252.881,236.601 254.434 C 236.271 254.782,236.000 255.273,236.000 255.524 C 236.000 255.776,235.550 256.276,235.000 256.637 C 234.450 256.997,234.000 257.524,234.000 257.808 C 234.000 258.092,233.373 259.106,232.607 260.062 C 231.840 261.018,230.895 262.235,230.507 262.768 C 230.118 263.300,229.305 264.227,228.700 264.828 C 228.095 265.429,227.600 266.096,227.600 266.310 C 227.600 266.677,224.200 271.152,222.441 273.100 C 221.994 273.596,221.412 274.404,221.148 274.897 C 220.727 275.684,219.936 276.713,215.903 281.721 C 215.406 282.338,214.595 283.258,214.100 283.767 C 213.605 284.276,213.200 284.851,213.200 285.046 C 213.199 285.377,209.703 289.862,207.281 292.639 C 205.048 295.198,201.532 295.843,187.800 296.210 C 181.962 296.365,177.321 296.679,175.957 297.010 C 168.583 298.799,167.040 297.776,166.250 290.571 C 165.962 287.937,165.507 285.374,165.241 284.876 C 164.974 284.379,164.502 281.953,164.191 279.486 C 163.880 277.019,163.348 274.010,163.009 272.800 C 162.669 271.590,162.278 269.070,162.139 267.200 C 162.000 265.330,161.564 262.970,161.171 261.955 C 160.777 260.940,160.259 258.004,160.019 255.429 C 159.777 252.828,159.334 250.359,159.023 249.874 C 158.714 249.393,158.264 246.987,158.022 244.526 C 157.781 242.065,157.312 239.285,156.981 238.346 C 156.650 237.408,156.192 234.831,155.963 232.620 C 155.734 230.409,155.219 227.610,154.819 226.400 C 154.419 225.190,153.963 222.580,153.806 220.600 C 153.649 218.620,153.181 216.010,152.767 214.800 C 152.352 213.590,151.848 210.687,151.646 208.348 C 151.445 206.010,151.106 203.760,150.893 203.348 C 150.447 202.486,149.742 198.555,149.366 194.837 C 149.224 193.428,148.855 191.671,148.546 190.932 C 148.237 190.194,147.791 187.657,147.555 185.295 C 147.318 182.933,146.981 180.820,146.806 180.600 C 146.352 180.031,145.695 176.339,145.382 172.600 C 145.235 170.840,144.846 168.878,144.517 168.241 C 144.187 167.603,143.671 164.813,143.369 162.041 C 143.067 159.268,142.565 156.280,142.252 155.400 C 141.940 154.520,141.488 151.968,141.247 149.730 C 141.007 147.491,140.621 145.241,140.391 144.730 C 140.161 144.218,139.748 142.450,139.474 140.800 L 138.976 137.800 120.921 137.600 C 110.991 137.490,102.786 137.310,102.687 137.200 C 101.801 136.209,101.600 134.593,101.600 128.459 C 101.600 119.787,101.785 119.430,106.830 118.362 C 108.023 118.109,109.510 117.642,110.134 117.324 C 110.757 117.005,112.327 116.574,113.622 116.365 C 114.918 116.157,116.568 115.640,117.289 115.217 C 118.010 114.794,119.590 114.322,120.800 114.169 C 122.010 114.015,123.653 113.562,124.452 113.162 C 125.250 112.761,126.993 112.258,128.325 112.043 C 129.657 111.828,131.164 111.381,131.674 111.048 C 132.183 110.716,133.860 110.244,135.400 110.000 C 136.940 109.756,138.621 109.282,139.135 108.946 C 139.649 108.611,141.260 108.151,142.716 107.924 C 144.171 107.698,145.737 107.267,146.195 106.966 C 146.653 106.666,148.462 106.212,150.214 105.957 C 151.966 105.702,153.919 105.230,154.554 104.908 C 157.505 103.414,170.823 103.275,172.776 104.719 M391.115 380.849 C 390.722 381.262,390.594 381.673,390.815 381.809 C 391.027 381.940,391.200 381.846,391.200 381.600 C 391.200 381.354,391.408 381.281,391.662 381.438 C 391.935 381.607,392.016 381.549,391.859 381.296 C 391.714 381.061,391.812 380.796,392.078 380.707 C 392.347 380.618,392.392 380.453,392.180 380.337 C 391.971 380.221,391.492 380.452,391.115 380.849 M7.902 380.666 C 8.179 380.777,8.286 381.061,8.141 381.296 C 7.984 381.549,8.065 381.607,8.338 381.438 C 8.592 381.281,8.800 381.373,8.800 381.643 C 8.800 381.913,8.916 382.018,9.057 381.876 C 9.393 381.540,8.434 380.391,7.851 380.432 C 7.570 380.451,7.589 380.540,7.902 380.666 M380.715 391.249 C 380.322 391.662,380.194 392.073,380.415 392.209 C 380.627 392.340,380.800 392.246,380.800 392.000 C 380.800 391.754,381.008 391.681,381.262 391.838 C 381.535 392.007,381.616 391.949,381.459 391.696 C 381.314 391.461,381.412 391.196,381.678 391.107 C 381.947 391.018,381.992 390.853,381.780 390.737 C 381.571 390.621,381.092 390.852,380.715 391.249 M18.302 391.066 C 18.579 391.177,18.686 391.461,18.541 391.696 C 18.384 391.949,18.465 392.007,18.738 391.838 C 18.992 391.681,19.200 391.773,19.200 392.043 C 19.200 392.313,19.316 392.418,19.457 392.276 C 19.793 391.940,18.834 390.791,18.251 390.832 C 17.970 390.851,17.989 390.940,18.302 391.066 M373.455 395.400 C 373.582 395.730,374.026 396.000,374.443 396.000 C 374.859 396.000,375.200 395.730,375.200 395.400 C 375.200 395.029,374.824 394.800,374.213 394.800 C 373.499 394.800,373.289 394.967,373.455 395.400 M369.467 397.067 C 369.052 397.482,369.153 398.800,369.600 398.800 C 369.820 398.800,370.000 398.641,370.000 398.447 C 370.000 398.252,370.378 397.994,370.840 397.874 C 371.303 397.753,371.562 397.462,371.417 397.227 C 371.124 396.753,369.882 396.651,369.467 397.067 M363.200 399.400 C 363.200 399.730,363.470 400.000,363.800 400.000 C 364.130 400.000,364.400 399.730,364.400 399.400 C 364.400 399.070,364.130 398.800,363.800 398.800 C 363.470 398.800,363.200 399.070,363.200 399.400 " stroke="none" fill="#3cd2a4" fill-rule="evenodd"></path><path id="path4" d="M34.400 0.600 C 34.400 1.044,33.933 1.200,32.600 1.200 C 30.930 1.200,30.588 1.439,30.750 2.493 C 30.795 2.781,29.576 3.131,28.400 3.168 C 26.091 3.239,24.409 3.522,24.497 3.823 C 24.554 4.019,25.005 4.126,25.500 4.061 C 25.995 3.996,26.400 4.146,26.400 4.395 C 26.400 4.644,26.220 4.736,26.000 4.600 C 25.780 4.464,25.375 4.493,25.100 4.665 C 24.478 5.054,23.622 5.260,22.666 5.251 C 22.162 5.247,22.007 5.441,22.173 5.873 C 22.519 6.776,21.755 7.507,20.597 7.380 C 19.993 7.314,19.600 7.474,19.600 7.786 C 19.600 8.542,18.627 9.224,17.333 9.376 C 16.710 9.449,16.088 9.529,15.952 9.554 C 15.816 9.579,15.726 10.005,15.752 10.500 C 15.789 11.199,15.555 11.428,14.700 11.527 C 13.836 11.626,13.600 11.862,13.600 12.627 C 13.600 13.398,13.393 13.600,12.600 13.600 C 11.808 13.600,11.600 13.802,11.600 14.572 C 11.600 15.273,11.351 15.580,10.708 15.672 C 10.118 15.757,9.694 16.207,9.455 17.000 C 8.817 19.118,8.312 19.941,7.777 19.736 C 7.426 19.601,7.214 19.970,7.128 20.868 C 7.023 21.955,6.843 22.184,6.147 22.113 C 5.677 22.065,5.301 22.245,5.310 22.513 C 5.353 23.813,5.161 24.423,4.782 24.189 C 3.971 23.688,3.200 24.881,3.200 26.636 C 3.200 27.962,3.067 28.324,2.640 28.160 C 1.618 27.768,1.352 28.565,1.261 32.300 C 1.214 34.228,1.063 34.800,0.600 34.800 C 0.068 34.800,0.000 53.444,0.000 200.200 C 0.000 346.956,0.068 365.600,0.600 365.600 C 1.044 365.600,1.200 366.067,1.200 367.400 C 1.200 368.464,1.384 369.200,1.649 369.200 C 1.952 369.200,1.970 369.363,1.704 369.700 C 0.766 370.888,1.444 371.850,2.676 371.080 C 2.975 370.893,3.156 371.045,3.164 371.491 C 3.174 372.093,3.475 375.426,3.569 375.980 C 3.586 376.079,3.816 375.944,4.080 375.680 C 4.955 374.805,5.163 375.092,5.232 377.276 C 5.246 377.705,5.646 377.997,6.327 378.076 C 7.214 378.179,7.392 378.390,7.355 379.300 C 7.329 379.933,7.520 380.400,7.806 380.400 C 8.543 380.400,9.225 381.385,9.376 382.667 C 9.449 383.290,9.529 383.912,9.554 384.048 C 9.579 384.184,10.005 384.274,10.500 384.248 C 11.199 384.211,11.428 384.445,11.527 385.300 C 11.626 386.164,11.862 386.400,12.627 386.400 C 13.398 386.400,13.600 386.607,13.600 387.400 C 13.600 388.200,13.800 388.400,14.600 388.400 C 15.323 388.400,15.600 388.615,15.600 389.176 C 15.600 390.086,16.074 390.436,17.765 390.776 C 18.500 390.923,19.160 391.383,19.395 391.912 C 19.665 392.520,20.138 392.800,20.895 392.800 C 21.812 392.800,22.000 392.973,22.000 393.818 C 22.000 394.400,22.214 394.807,22.500 394.770 C 23.650 394.621,24.430 394.828,24.189 395.218 C 23.688 396.029,24.881 396.800,26.636 396.800 C 27.962 396.800,28.324 396.933,28.160 397.360 C 27.768 398.382,28.565 398.648,32.300 398.739 C 34.228 398.786,34.800 398.937,34.800 399.400 C 34.800 399.932,53.311 400.000,199.000 400.000 C 344.689 400.000,363.200 399.932,363.200 399.400 C 363.200 399.070,363.470 398.800,363.800 398.800 C 364.130 398.800,364.400 399.070,364.400 399.400 C 364.400 399.730,364.670 400.000,365.000 400.000 C 365.330 400.000,365.600 399.730,365.600 399.400 C 365.600 398.957,366.064 398.800,367.372 398.800 C 368.905 398.800,369.162 398.679,369.272 397.900 C 369.374 397.186,369.689 396.980,370.800 396.903 C 374.999 396.610,375.789 396.490,375.682 396.161 C 375.616 395.963,375.144 395.855,374.633 395.922 C 374.065 395.996,373.607 395.795,373.458 395.406 C 373.257 394.883,373.517 394.772,374.906 394.788 C 377.884 394.821,377.946 394.799,378.076 393.673 C 378.179 392.780,378.388 392.608,379.322 392.646 C 379.989 392.674,380.382 392.511,380.291 392.246 C 380.048 391.540,381.303 390.595,382.400 390.656 C 383.718 390.730,384.231 390.375,384.214 389.400 C 384.204 388.820,384.503 388.565,385.300 388.473 C 386.164 388.374,386.400 388.138,386.400 387.373 C 386.400 386.602,386.607 386.400,387.400 386.400 C 388.200 386.400,388.400 386.200,388.400 385.400 C 388.400 384.697,388.618 384.400,389.132 384.400 C 389.947 384.400,391.009 382.748,390.722 381.927 C 390.493 381.273,391.675 380.092,392.337 380.312 C 392.606 380.402,392.798 380.323,392.765 380.137 C 392.511 378.707,392.860 378.000,393.818 378.000 C 394.400 378.000,394.807 377.786,394.770 377.500 C 394.621 376.350,394.828 375.570,395.218 375.811 C 395.897 376.231,396.851 375.145,396.781 374.032 C 396.652 372.003,396.783 371.508,397.387 371.740 C 398.416 372.135,398.630 371.406,398.748 367.100 C 398.786 365.701,398.958 365.200,399.400 365.200 C 399.932 365.200,400.000 346.689,400.000 201.000 C 400.000 55.311,399.932 36.800,399.400 36.800 C 399.070 36.800,398.800 36.530,398.800 36.200 C 398.800 35.870,399.070 35.600,399.400 35.600 C 399.730 35.600,400.000 35.330,400.000 35.000 C 400.000 34.670,399.730 34.400,399.400 34.400 C 398.959 34.400,398.800 33.940,398.800 32.664 C 398.800 31.198,398.644 30.857,397.793 30.470 C 397.062 30.136,396.792 29.709,396.805 28.905 C 396.845 26.587,396.508 24.208,396.168 24.400 C 395.973 24.510,395.860 24.960,395.918 25.400 L 396.022 26.200 395.527 25.400 C 394.970 24.501,394.741 23.720,394.745 22.724 C 394.746 22.287,394.367 22.004,393.673 21.924 C 392.786 21.821,392.608 21.610,392.645 20.700 C 392.671 20.067,392.480 19.600,392.194 19.600 C 391.457 19.600,390.775 18.615,390.624 17.333 C 390.551 16.710,390.471 16.088,390.446 15.952 C 390.421 15.816,389.995 15.726,389.500 15.752 C 388.801 15.789,388.572 15.555,388.473 14.700 C 388.374 13.836,388.138 13.600,387.373 13.600 C 386.602 13.600,386.400 13.393,386.400 12.600 C 386.400 11.800,386.200 11.600,385.400 11.600 C 384.677 11.600,384.400 11.385,384.400 10.824 C 384.400 9.914,383.926 9.564,382.235 9.224 C 381.511 9.079,380.840 8.617,380.613 8.107 C 380.362 7.543,379.801 7.196,379.013 7.119 C 378.014 7.021,377.817 6.838,377.898 6.083 C 377.957 5.540,377.793 5.192,377.498 5.230 C 376.349 5.379,375.570 5.172,375.811 4.782 C 376.231 4.103,375.145 3.149,374.032 3.219 C 372.100 3.342,371.619 3.215,371.840 2.640 C 372.232 1.618,371.435 1.352,367.700 1.261 C 365.772 1.214,365.200 1.063,365.200 0.600 C 365.200 0.068,346.689 0.000,201.000 0.000 C 55.311 0.000,36.800 0.068,36.800 0.600 C 36.800 0.930,36.530 1.200,36.200 1.200 C 35.870 1.200,35.600 0.930,35.600 0.600 C 35.600 0.270,35.330 0.000,35.000 0.000 C 34.670 0.000,34.400 0.270,34.400 0.600 M28.884 1.815 C 28.601 2.137,28.421 2.414,28.484 2.431 C 29.669 2.744,30.000 2.642,30.000 1.965 C 30.000 1.060,29.598 1.006,28.884 1.815 M18.044 7.747 C 17.687 8.177,17.680 8.402,18.015 8.610 C 18.668 9.013,19.477 8.117,18.943 7.583 C 18.654 7.294,18.378 7.344,18.044 7.747 M380.990 7.615 C 380.587 8.268,381.483 9.077,382.017 8.543 C 382.306 8.254,382.256 7.978,381.853 7.644 C 381.423 7.287,381.198 7.280,380.990 7.615 M7.644 18.147 C 7.287 18.577,7.280 18.802,7.615 19.010 C 8.268 19.413,9.077 18.517,8.543 17.983 C 8.254 17.694,7.978 17.744,7.644 18.147 M391.390 18.015 C 390.987 18.668,391.883 19.477,392.417 18.943 C 392.706 18.654,392.656 18.378,392.253 18.044 C 391.823 17.687,391.598 17.680,391.390 18.015 M397.569 28.471 C 397.269 29.735,397.349 30.000,398.035 30.000 C 398.456 30.000,398.800 29.897,398.800 29.771 C 398.800 29.517,397.618 28.268,397.569 28.471 M174.088 104.294 C 174.611 104.785,175.639 105.308,176.373 105.455 C 177.176 105.615,177.782 106.010,177.896 106.447 C 178.001 106.847,178.437 107.285,178.866 107.421 C 179.295 107.557,179.811 108.103,180.013 108.634 C 180.215 109.165,180.651 109.600,180.982 109.600 C 181.314 109.600,181.693 110.030,181.825 110.556 C 181.957 111.082,182.472 111.866,182.969 112.298 C 183.669 112.907,183.928 113.673,184.116 115.685 C 184.256 117.177,184.702 118.865,185.163 119.647 C 185.796 120.720,186.027 122.074,186.248 126.005 C 186.478 130.104,186.674 131.197,187.338 132.099 C 188.012 133.012,188.179 133.988,188.328 137.888 C 188.478 141.801,188.643 142.760,189.324 143.682 C 189.997 144.592,190.172 145.571,190.325 149.283 C 190.480 153.051,190.647 153.967,191.355 154.923 C 192.078 155.901,192.229 156.795,192.400 161.133 C 192.572 165.495,192.720 166.367,193.464 167.400 C 194.186 168.403,194.372 169.388,194.597 173.400 C 194.785 176.763,195.043 178.397,195.457 178.859 C 196.134 179.612,196.780 183.512,196.792 186.916 C 196.798 188.633,197.017 189.526,197.640 190.369 C 198.356 191.337,198.513 192.266,198.703 196.653 C 198.892 201.034,199.049 201.969,199.762 202.933 C 200.466 203.884,200.632 204.820,200.800 208.763 C 200.960 212.521,201.140 213.600,201.700 214.159 C 202.085 214.543,202.415 214.889,202.433 214.929 C 202.451 214.968,202.591 217.192,202.745 219.872 C 202.974 223.855,203.165 224.899,203.792 225.591 C 204.415 226.279,204.638 227.468,204.979 231.919 C 205.298 236.076,205.578 237.663,206.137 238.486 C 206.712 239.334,206.923 240.630,207.096 244.386 C 207.218 247.034,207.442 249.200,207.595 249.200 C 208.028 249.200,208.800 251.133,208.800 252.219 C 208.800 253.414,209.424 253.516,209.724 252.370 C 209.843 251.914,210.314 251.443,210.770 251.324 C 211.227 251.204,211.600 250.799,211.600 250.423 C 211.600 250.047,212.041 249.325,212.579 248.819 C 213.118 248.314,213.675 247.371,213.816 246.726 C 213.977 245.995,214.437 245.414,215.037 245.186 C 215.636 244.958,216.000 244.500,216.000 243.972 C 216.000 243.466,216.317 243.042,216.787 242.919 C 217.219 242.806,217.694 242.335,217.841 241.872 C 217.988 241.409,218.510 240.714,219.001 240.327 C 219.493 239.941,220.008 239.062,220.145 238.375 C 220.297 237.614,220.695 237.048,221.163 236.925 C 221.586 236.815,222.033 236.336,222.156 235.862 C 222.279 235.388,222.834 234.477,223.390 233.838 C 223.945 233.199,224.400 232.438,224.400 232.147 C 224.400 231.856,224.850 231.324,225.400 230.963 C 225.950 230.603,226.400 229.975,226.400 229.568 C 226.400 229.161,226.760 228.635,227.201 228.400 C 227.641 228.164,228.263 227.345,228.583 226.580 C 228.902 225.815,229.442 225.082,229.782 224.952 C 230.122 224.821,230.400 224.308,230.400 223.812 C 230.400 223.316,230.940 222.231,231.600 221.400 C 232.260 220.569,232.800 219.651,232.800 219.359 C 232.800 219.067,233.148 218.642,233.573 218.414 C 233.998 218.187,234.473 217.596,234.628 217.100 C 234.783 216.605,235.335 215.691,235.855 215.069 C 236.375 214.447,236.800 213.530,236.800 213.031 C 236.800 212.532,237.161 211.798,237.602 211.398 C 238.043 210.999,238.592 209.972,238.823 209.115 C 239.053 208.259,239.588 207.212,240.011 206.789 C 240.434 206.366,240.900 205.542,241.046 204.958 C 241.193 204.374,241.630 203.813,242.016 203.712 C 242.496 203.586,242.804 202.965,242.984 201.765 C 243.153 200.642,243.521 199.856,244.000 199.600 C 244.494 199.336,244.847 198.547,245.032 197.299 C 245.190 196.227,245.723 194.908,246.256 194.269 C 246.775 193.647,247.200 192.759,247.200 192.295 C 247.200 191.831,247.581 191.046,248.047 190.550 C 248.513 190.054,249.056 188.782,249.253 187.724 C 249.450 186.666,249.946 185.530,250.355 185.200 C 250.810 184.833,251.198 183.831,251.353 182.623 C 251.492 181.535,251.948 180.275,252.367 179.823 C 252.875 179.273,253.223 178.092,253.414 176.269 C 253.611 174.388,253.933 173.321,254.449 172.840 C 255.059 172.272,255.244 171.326,255.440 167.771 C 255.635 164.213,255.838 163.177,256.528 162.200 C 257.850 160.330,258.035 153.798,256.821 151.834 C 256.343 151.060,255.761 149.208,255.530 147.719 C 255.240 145.859,254.872 144.845,254.354 144.483 C 253.939 144.192,253.600 143.713,253.600 143.418 C 253.600 142.284,246.808 135.072,244.700 133.969 C 243.875 133.537,243.200 133.003,243.200 132.782 C 243.200 132.561,242.765 132.215,242.234 132.013 C 241.703 131.811,241.151 131.276,241.007 130.823 C 240.864 130.370,240.430 130.000,240.043 130.000 C 239.656 130.000,238.917 129.550,238.400 129.000 C 237.883 128.450,237.214 128.000,236.912 128.000 C 236.610 128.000,235.901 127.538,235.337 126.973 C 234.772 126.408,233.880 125.782,233.355 125.583 C 231.852 125.011,232.082 120.682,233.642 120.187 C 234.058 120.055,234.506 119.515,234.639 118.988 C 234.771 118.460,235.212 117.923,235.619 117.794 C 236.026 117.665,236.470 117.208,236.606 116.780 C 236.743 116.351,237.016 116.000,237.213 116.000 C 237.411 116.000,238.125 115.460,238.800 114.800 C 239.475 114.140,240.189 113.600,240.387 113.600 C 240.584 113.600,240.860 113.240,241.000 112.800 C 241.140 112.360,241.485 112.000,241.768 112.000 C 242.050 112.000,242.846 111.460,243.537 110.800 C 244.231 110.137,245.230 109.600,245.769 109.600 C 246.386 109.600,246.837 109.313,246.994 108.820 C 247.238 108.049,247.483 107.925,249.782 107.409 C 250.432 107.263,251.189 106.822,251.464 106.430 C 251.780 105.979,252.704 105.628,253.971 105.478 C 255.126 105.341,256.506 104.850,257.222 104.320 C 259.506 102.631,280.047 102.712,281.506 104.416 C 281.874 104.845,282.947 105.287,283.978 105.435 C 284.980 105.578,286.160 106.013,286.600 106.401 C 287.040 106.789,287.985 107.402,288.700 107.763 C 289.415 108.125,290.000 108.591,290.000 108.800 C 290.000 109.009,290.540 109.459,291.200 109.800 C 291.860 110.141,292.400 110.690,292.400 111.020 C 292.400 111.350,292.850 111.791,293.400 112.000 C 293.950 112.209,294.400 112.622,294.400 112.918 C 294.400 113.214,294.826 113.826,295.346 114.278 C 295.867 114.731,296.420 115.780,296.576 116.610 C 296.731 117.440,297.246 118.433,297.719 118.816 C 298.439 119.399,298.605 120.030,298.732 122.657 C 298.834 124.781,299.088 126.032,299.517 126.515 C 300.923 128.100,300.878 139.169,299.462 140.204 C 298.938 140.588,298.800 141.386,298.798 144.044 C 298.795 147.777,298.247 150.330,297.375 150.665 C 297.022 150.800,296.798 151.448,296.796 152.343 C 296.788 154.816,296.336 156.718,295.558 157.553 C 295.118 158.026,294.706 159.262,294.552 160.573 C 294.389 161.953,293.933 163.277,293.345 164.074 C 292.794 164.821,292.400 165.915,292.400 166.697 C 292.400 167.614,292.084 168.331,291.400 168.965 C 290.815 169.507,290.400 170.334,290.400 170.959 C 290.400 172.249,289.385 174.800,288.872 174.800 C 288.668 174.800,288.392 175.490,288.257 176.333 C 288.122 177.175,287.670 178.175,287.252 178.553 C 286.834 178.931,286.382 179.790,286.248 180.460 C 286.114 181.131,285.553 182.216,285.002 182.871 C 284.451 183.525,284.000 184.470,284.000 184.969 C 284.000 185.468,283.647 186.196,283.215 186.586 C 282.783 186.977,282.232 187.896,281.990 188.629 C 281.748 189.362,281.202 190.073,280.775 190.208 C 280.323 190.351,279.998 190.818,279.995 191.327 C 279.985 192.901,279.527 193.969,278.757 194.214 C 278.341 194.346,278.000 194.774,278.000 195.165 C 278.000 195.556,277.556 196.393,277.013 197.025 C 276.470 197.656,275.910 198.719,275.770 199.387 C 275.629 200.054,275.185 200.960,274.783 201.400 C 274.382 201.840,273.859 202.712,273.622 203.339 C 273.385 203.965,272.833 204.571,272.395 204.685 C 271.904 204.814,271.600 205.231,271.600 205.777 C 271.600 206.263,271.170 207.065,270.644 207.558 C 270.119 208.052,269.586 208.969,269.461 209.596 C 269.327 210.263,268.895 210.843,268.416 210.995 C 267.967 211.137,267.600 211.570,267.600 211.957 C 267.600 212.344,267.159 213.075,266.621 213.581 C 266.082 214.086,265.525 215.029,265.384 215.674 C 265.223 216.405,264.763 216.986,264.163 217.214 C 263.585 217.434,263.200 217.903,263.200 218.387 C 263.200 218.831,262.795 219.657,262.300 220.223 C 261.805 220.789,261.304 221.645,261.187 222.126 C 261.070 222.607,260.575 223.178,260.087 223.395 C 259.599 223.612,259.200 224.082,259.200 224.440 C 259.200 224.797,258.660 225.769,258.000 226.600 C 257.340 227.431,256.800 228.359,256.800 228.664 C 256.800 228.968,256.350 229.422,255.800 229.673 C 255.230 229.932,254.800 230.465,254.800 230.909 C 254.800 231.638,253.805 233.095,251.731 235.406 C 251.253 235.939,250.752 236.721,250.618 237.144 C 250.483 237.567,250.019 238.006,249.587 238.119 C 249.154 238.233,248.800 238.633,248.800 239.010 C 248.800 239.386,248.260 240.309,247.600 241.061 C 246.940 241.813,246.400 242.687,246.400 243.005 C 246.400 243.322,245.950 243.876,245.400 244.237 C 244.850 244.597,244.400 245.248,244.400 245.683 C 244.400 246.134,244.061 246.563,243.613 246.681 C 243.181 246.794,242.706 247.265,242.559 247.728 C 242.412 248.191,241.890 248.886,241.399 249.273 C 240.907 249.659,240.392 250.538,240.255 251.225 C 240.103 251.986,239.705 252.552,239.237 252.675 C 238.814 252.785,238.363 253.291,238.236 253.799 C 238.109 254.307,237.213 255.537,236.245 256.532 C 235.278 257.528,234.320 258.850,234.117 259.471 C 233.914 260.092,233.355 260.778,232.874 260.995 C 232.393 261.212,232.000 261.708,232.000 262.096 C 232.000 262.485,231.175 263.657,230.167 264.701 C 229.160 265.746,228.156 267.083,227.938 267.674 C 227.719 268.264,227.104 269.033,226.570 269.383 C 226.037 269.732,225.600 270.278,225.600 270.595 C 225.600 270.912,225.240 271.365,224.800 271.600 C 224.360 271.835,224.000 272.260,224.000 272.544 C 224.000 272.828,223.534 273.497,222.965 274.030 C 222.396 274.564,221.685 275.585,221.385 276.300 C 221.086 277.015,220.581 277.600,220.264 277.600 C 219.946 277.600,219.577 278.038,219.442 278.573 C 219.308 279.109,218.839 279.661,218.399 279.800 C 217.960 279.940,217.600 280.288,217.600 280.575 C 217.600 281.145,214.530 285.206,213.710 285.720 C 213.430 285.896,213.200 286.395,213.200 286.828 C 213.200 287.275,212.779 287.809,212.231 288.059 C 211.698 288.302,211.160 288.906,211.035 289.402 C 210.911 289.898,210.447 290.399,210.004 290.515 C 209.562 290.630,209.200 290.998,209.200 291.331 C 209.200 291.992,206.562 294.814,204.967 295.858 C 204.125 296.410,202.228 296.541,192.685 296.704 C 184.205 296.848,181.251 297.026,180.800 297.418 C 179.792 298.295,169.533 298.950,167.846 298.245 C 166.298 297.598,166.186 297.259,165.778 292.000 C 165.615 289.897,165.289 288.344,164.922 287.930 C 164.256 287.176,163.633 283.066,163.613 279.300 C 163.606 277.925,163.449 276.800,163.264 276.800 C 162.447 276.800,161.896 274.229,161.698 269.500 C 161.581 266.695,161.322 264.400,161.122 264.400 C 160.248 264.400,159.600 261.503,159.600 257.597 C 159.600 254.046,159.493 253.423,158.700 252.351 C 157.933 251.314,157.769 250.471,157.589 246.667 C 157.419 243.087,157.210 241.922,156.534 240.800 C 155.859 239.679,155.638 238.454,155.427 234.658 C 155.213 230.826,155.010 229.710,154.366 228.839 C 153.711 227.954,153.524 226.872,153.320 222.781 C 153.142 219.218,152.912 217.683,152.513 217.389 C 151.687 216.780,151.220 214.239,151.210 210.284 C 151.201 207.297,151.067 206.588,150.319 205.577 C 149.567 204.559,149.407 203.695,149.219 199.634 C 149.038 195.711,148.866 194.734,148.234 194.036 C 147.595 193.331,147.421 192.301,147.189 187.850 C 146.949 183.249,146.798 182.398,146.102 181.702 C 145.418 181.018,145.248 180.135,144.998 175.964 C 144.758 171.965,144.550 170.830,143.899 169.950 C 143.239 169.056,143.060 168.028,142.889 164.135 C 142.718 160.277,142.535 159.209,141.894 158.342 C 141.260 157.485,141.066 156.398,140.892 152.740 C 140.716 149.010,140.531 148.004,139.857 147.092 C 139.203 146.207,139.003 145.212,138.870 142.191 L 138.705 138.400 120.752 138.400 C 98.637 138.400,101.200 139.713,101.200 128.382 C 101.200 118.392,101.352 118.000,105.236 118.000 C 106.895 118.000,107.481 117.813,108.176 117.064 C 108.892 116.291,109.584 116.086,112.134 115.894 C 114.598 115.707,115.362 115.491,115.912 114.827 C 116.425 114.206,117.260 113.929,119.200 113.737 C 120.672 113.592,121.935 113.253,122.111 112.956 C 122.524 112.260,124.973 111.605,127.174 111.602 C 128.451 111.601,129.212 111.353,129.887 110.718 C 130.614 110.035,131.433 109.801,133.513 109.681 C 135.143 109.586,136.370 109.310,136.633 108.978 C 137.298 108.137,139.058 107.600,141.148 107.600 C 142.512 107.600,143.403 107.335,144.322 106.658 C 145.302 105.935,146.347 105.653,148.807 105.448 C 150.960 105.268,152.277 104.953,152.814 104.490 C 154.675 102.883,172.414 102.720,174.088 104.294 M7.428 381.155 C 7.307 381.350,7.461 381.718,7.769 381.974 C 8.392 382.492,9.031 381.897,8.600 381.200 C 8.294 380.705,7.720 380.683,7.428 381.155 M391.400 381.200 C 390.969 381.897,391.608 382.492,392.231 381.974 C 392.539 381.718,392.693 381.350,392.572 381.155 C 392.280 380.683,391.706 380.705,391.400 381.200 M17.828 391.555 C 17.707 391.750,17.861 392.118,18.169 392.374 C 18.792 392.892,19.431 392.297,19.000 391.600 C 18.694 391.105,18.120 391.083,17.828 391.555 M381.000 391.600 C 380.569 392.297,381.208 392.892,381.831 392.374 C 382.139 392.118,382.293 391.750,382.172 391.555 C 381.880 391.083,381.306 391.105,381.000 391.600 " stroke="none" fill="#24cc94" fill-rule="evenodd"></path></g></svg>